<?xml version="1.0" encoding="UTF-8" standalone="no"?>
<svg
   xmlns:dc="http://purl.org/dc/elements/1.1/"
   xmlns:cc="http://creativecommons.org/ns#"
   xmlns:rdf="http://www.w3.org/1999/02/22-rdf-syntax-ns#"
   xmlns:svg="http://www.w3.org/2000/svg"
   xmlns="http://www.w3.org/2000/svg"
   xmlns:xlink="http://www.w3.org/1999/xlink"
   xmlns:sodipodi="http://sodipodi.sourceforge.net/DTD/sodipodi-0.dtd"
   xmlns:inkscape="http://www.inkscape.org/namespaces/inkscape"
   version="1.1"
   width="31.646"
   height="31.689501"
   id="svg2"
   inkscape:version="0.48.2 r9819"
   sodipodi:docname="cc_2x.svg">
  <metadata
     id="metadata13">
    <rdf:RDF>
      <cc:Work
         rdf:about="">
        <dc:format>image/svg+xml</dc:format>
        <dc:type
           rdf:resource="http://purl.org/dc/dcmitype/StillImage" />
        <dc:title></dc:title>
      </cc:Work>
    </rdf:RDF>
  </metadata>
  <defs
     id="defs11" />
  <sodipodi:namedview
     pagecolor="#ffffff"
     bordercolor="#666666"
     borderopacity="1"
     objecttolerance="10"
     gridtolerance="10"
     guidetolerance="10"
     inkscape:pageopacity="0"
     inkscape:pageshadow="2"
     inkscape:window-width="939"
     inkscape:window-height="659"
     id="namedview9"
     showgrid="false"
     fit-margin-top="0"
     fit-margin-left="0"
     fit-margin-right="0"
     fit-margin-bottom="0"
     inkscape:zoom="3.6875"
     inkscape:cx="15.823"
     inkscape:cy="15.845247"
     inkscape:window-x="0"
     inkscape:window-y="0"
     inkscape:window-maximized="0"
     inkscape:current-layer="svg2" />
  <path
     d="M 15.8015,0 C 11.4605,0 7.6405,1.6065 4.6885,4.6015 1.6495,7.6835 0,11.6775 0,15.8445 c 0,4.211 1.606,8.118 4.645,11.1565 3.039,3.039 6.989,4.6885 11.1565,4.6885 4.167,0 8.2045,-1.6495 11.33,-4.7315 2.952,-2.9085 4.5145,-6.772 4.5145,-11.1135 0,-4.2975 -1.5625,-8.204 -4.558,-11.1995 C 24.0495,1.606 20.1425,0 15.8015,0 z m 0.043,2.865 c 3.56,0 6.729,1.3455 9.203,3.8205 2.431,2.4305 3.733,5.643 3.733,9.159 0,3.5595 -1.259,6.6855 -3.6895,9.073 -2.5615,2.5175 -5.8605,3.8635 -9.2465,3.8635 -3.429,0 -6.6415,-1.3455 -9.116,-3.8205 C 4.254,22.486 2.865,19.2305 2.865,15.8445 2.865,12.4155 4.254,9.16 6.7285,6.6415 9.1595,4.1675 12.285,2.865 15.8445,2.865 z"
     style="fill:#85c155"
     id="path4"
     inkscape:connector-curvature="0" />
  <path
     id="c"
     d="m 15.6405,13.2115 c -0.895,-1.632 -2.422,-2.2815 -4.1945,-2.2815 -2.58,0 -4.6335,1.825 -4.6335,4.914 0,3.1415 1.9305,4.9145 4.721,4.9145 1.7905,0 3.3175,-0.983 4.1595,-2.4745 l -1.9655,-1.0005 c -0.439,1.0525 -1.106,1.369 -1.948,1.369 -1.457,0 -2.124,-1.211 -2.124,-2.8085 0,-1.5965 0.562,-2.808 2.124,-2.808 0.421,0 1.2635,0.228 1.755,1.2815 l 2.106,-1.106 z"
     style="fill:#85c155"
     inkscape:connector-curvature="0" />
  <use
     xlink:href="#c"
     transform="translate(9.1405,0)"
     id="use7"
     x="0"
     y="0"
     width="64"
     height="64" />
</svg>
