<?xml version="1.0" encoding="UTF-8" standalone="no"?>
<svg
   xmlns:dc="http://purl.org/dc/elements/1.1/"
   xmlns:cc="http://creativecommons.org/ns#"
   xmlns:rdf="http://www.w3.org/1999/02/22-rdf-syntax-ns#"
   xmlns:svg="http://www.w3.org/2000/svg"
   xmlns="http://www.w3.org/2000/svg"
   xmlns:xlink="http://www.w3.org/1999/xlink"
   xmlns:sodipodi="http://sodipodi.sourceforge.net/DTD/sodipodi-0.dtd"
   xmlns:inkscape="http://www.inkscape.org/namespaces/inkscape"
   width="136.69"
   height="32"
   id="svg2"
   version="1.1"
   inkscape:version="0.48.2 r9819"
   sodipodi:docname="cc_bync.flat.guokr.32.svg">
  <metadata
     id="metadata35">
    <rdf:RDF>
      <cc:Work
         rdf:about="">
        <dc:format>image/svg+xml</dc:format>
        <dc:type
           rdf:resource="http://purl.org/dc/dcmitype/StillImage" />
        <dc:title></dc:title>
      </cc:Work>
    </rdf:RDF>
  </metadata>
  <defs
     id="defs33" />
  <sodipodi:namedview
     pagecolor="#ffffff"
     bordercolor="#666666"
     borderopacity="1"
     objecttolerance="10"
     gridtolerance="10"
     guidetolerance="10"
     inkscape:pageopacity="0"
     inkscape:pageshadow="2"
     inkscape:window-width="1088"
     inkscape:window-height="746"
     id="namedview31"
     showgrid="false"
     inkscape:zoom="2.5648493"
     inkscape:cx="63.004829"
     inkscape:cy="-1.773159"
     inkscape:window-x="32"
     inkscape:window-y="5"
     inkscape:window-maximized="0"
     inkscape:current-layer="svg2"
     fit-margin-top="0"
     fit-margin-left="0"
     fit-margin-right="0"
     fit-margin-bottom="0"
     inkscape:snap-grids="true"
     inkscape:snap-page="false"
     showguides="true"
     inkscape:guide-bbox="true">
    <sodipodi:guide
       orientation="1,0"
       position="-43.392268,52.620016"
       id="guide3013" />
    <sodipodi:guide
       orientation="1,0"
       position="6.5131978,53.789675"
       id="guide3015" />
    <sodipodi:guide
       orientation="1,0"
       position="56.808549,47.941379"
       id="guide3017" />
    <sodipodi:guide
       orientation="1,0"
       position="106.71402,50.670584"
       id="guide3019" />
    <sodipodi:guide
       orientation="1,0"
       position="131.66675,54.179562"
       id="guide3021" />
    <sodipodi:guide
       orientation="1,0"
       position="181.57222,54.959335"
       id="guide3023" />
    <sodipodi:guide
       orientation="0,1"
       position="-96.026939,42.093082"
       id="guide3025" />
    <sodipodi:guide
       orientation="0,1"
       position="-86.279778,-10.151703"
       id="guide3027" />
  </sodipodi:namedview>
  <linearGradient
     id="a"
     x2="0"
     y2="36.249138"
     gradientTransform="matrix(7.1603236,0,0,1.7655592,-138.66667,0)"
     x1="0"
     y1="0"
     gradientUnits="userSpaceOnUse">
    <stop
       offset="0"
       id="stop5"
       style="stop-color:#ffffff;stop-opacity:0" />
    <stop
       offset="0.1"
       id="stop7"
       style="stop-color:#aaaaaa;stop-opacity:0" />
    <stop
       offset="0.89999998"
       id="stop9"
       style="stop-color:#000000;stop-opacity:0" />
    <stop
       offset="1"
       id="stop11"
       style="stop-color:#000000;stop-opacity:0" />
  </linearGradient>
  <rect
     rx="2.6336005"
     width="52"
     height="32"
     id="rect13"
     x="0"
     y="0"
     style="fill:#555555" />
  <rect
     style="fill:#85c155"
     y="0"
     x="50.725906"
     id="rect3034"
     height="32"
     width="85.964088"
     rx="2.1614969" />
  <path
     d="m 50.109769,0 h 17.844 v 32 h -17.844 z"
     id="path17"
     inkscape:connector-curvature="0"
     style="fill:#85c155" />
  <g
     transform="matrix(0.390625,0,0,0.39060613,62.530719,3.502706)"
     id="layer3"
     inkscape:label="Dessin"
     style="display:inline">
    <path
       inkscape:connector-curvature="0"
       style="fill:#ffffff;fill-opacity:1;fill-rule:nonzero;stroke:none"
       d="M 31.1875,0 C 13.904525,0.43835438 0,14.612004 0,32 0,49.663996 14.336004,64 32,64 49.663996,64 64,49.663996 64,32 64,14.336004 49.663996,0 32,0 31.724,0 31.461833,-0.00695801 31.1875,0 z M 31.15625,5.5 C 31.439783,5.49101 31.714297,5.5 32,5.5 46.628003,5.4999998 58.5,17.371998 58.5,32 58.499998,46.628001 46.628002,58.5 32,58.5 17.371999,58.499999 5.5,46.628002 5.5,32 5.4999999,17.657701 16.922915,5.9512829 31.15625,5.5 z"
       id="path1334" />
    <g
       id="g6525"
       style="fill:#ffffff;fill-opacity:1">
      <path
         transform="translate(-0.0625,0.185547)"
         d="m 36.6875,15.75 c 0,2.554317 -2.070683,4.625 -4.625,4.625 -2.554317,0 -4.625,-2.070683 -4.625,-4.625 0,-2.554317 2.070683,-4.625 4.625,-4.625 2.554317,0 4.625,2.070683 4.625,4.625 z"
         sodipodi:ry="4.625"
         sodipodi:rx="4.625"
         sodipodi:cy="15.75"
         sodipodi:cx="32.0625"
         id="path2838"
         style="fill:#ffffff;fill-opacity:1;fill-rule:evenodd;stroke:none"
         sodipodi:type="arc" />
      <path
         inkscape:connector-curvature="0"
         sodipodi:nodetypes="ccccssccssccc"
         d="m 27.215125,52.689453 9.56975,0 0,-15.378905 2.893008,0 c 0,0 -0.0011,-10.990367 0,-12.720111 -0.0028,-0.456306 0.04119,-1.365057 -0.620739,-2.026989 -0.661932,-0.661932 -1.555399,-0.621804 -2.02699,-0.620739 -0.47159,0.0011 -9.588717,0.0011 -10.060308,0 -0.471591,-0.0011 -1.365057,-0.04119 -2.026989,0.620739 -0.661933,0.661932 -0.617898,1.570683 -0.620739,2.026989 0.0011,1.729744 0,12.720111 0,12.720111 l 2.893007,0 0,15.378905 z"
         style="fill:#ffffff;fill-opacity:1;fill-rule:evenodd;stroke:none"
         id="path3572" />
    </g>
  </g>
  <g
     transform="matrix(0.39499463,0,0,0.39445242,12.323585,3.440898)"
     id="g3001">
    <path
       d="M 31.957,0.311 C 23.275,0.311 15.635,3.524 9.731,9.514 3.653,15.678 0.354,23.666 0.354,32 c 0,8.422 3.212,16.236 9.29,22.313 6.078,6.078 13.978,9.377 22.313,9.377 8.334,0 16.409,-3.299 22.66,-9.463 C 60.521,48.41 63.646,40.683 63.646,32 63.646,23.405 60.521,15.592 54.53,9.601 48.453,3.523 40.639,0.311 31.957,0.311 z m 0.086,5.73 c 7.12,0 13.458,2.691 18.406,7.641 4.862,4.861 7.466,11.286 7.466,18.318 0,7.119 -2.518,13.371 -7.379,18.146 -5.123,5.035 -11.721,7.727 -18.493,7.727 -6.858,0 -13.283,-2.691 -18.232,-7.641 C 8.862,45.283 6.084,38.772 6.084,32 6.084,25.142 8.862,18.631 13.811,13.594 18.673,8.646 24.924,6.041 32.043,6.041 z"
       style="fill:#ffffff"
       id="path4"
       inkscape:connector-curvature="0" />
    <path
       id="c"
       d="m 31.635,26.734 c -1.79,-3.264 -4.844,-4.563 -8.389,-4.563 -5.16,0 -9.267,3.65 -9.267,9.828 0,6.283 3.861,9.829 9.442,9.829 3.581,0 6.635,-1.966 8.319,-4.949 l -3.931,-2.001 c -0.878,2.105 -2.212,2.738 -3.896,2.738 -2.914,0 -4.248,-2.422 -4.248,-5.617 0,-3.193 1.124,-5.616 4.248,-5.616 0.842,0 2.527,0.456 3.51,2.563 l 4.212,-2.212 z"
       style="fill:#ffffff"
       inkscape:connector-curvature="0" />
    <use
       xlink:href="#c"
       transform="translate(18.281,0)"
       id="use7"
       x="0"
       y="0"
       width="64"
       height="64" />
  </g>
  <g
     id="g3118"
     transform="matrix(0.390625,0,0,0.39060613,100.00587,3.448897)">
    <path
       id="path1334-2"
       d="M 31.1875,0 C 13.904525,0.43835438 0,14.612004 0,32 0,49.663996 14.336004,64 32,64 49.663996,64 64,49.663996 64,32 64,14.336004 49.663996,0 32,0 31.724,0 31.461833,-0.00695801 31.1875,0 z M 31.15625,5.5 C 31.439783,5.49101 31.714297,5.5 32,5.5 46.628003,5.4999998 58.5,17.371998 58.5,32 58.499998,46.628001 46.628002,58.5 32,58.5 17.371999,58.499999 5.5,46.628002 5.5,32 5.4999999,17.657701 16.922915,5.9512829 31.15625,5.5 z"
       style="fill:#ffffff;fill-opacity:1;fill-rule:nonzero;stroke:none"
       inkscape:connector-curvature="0" />
    <path
       sodipodi:nodetypes="cssscssssccscscscscsc"
       id="text1367"
       d="m 25.645354,38.743144 c 2.060785,2.882165 8.350338,3.090297 10.509761,1.868256 0.792612,-0.448548 0.990593,-1.746893 0.99061,-2.62708 -1.7e-5,-0.604037 -0.158986,-1.078643 -0.476909,-1.423821 -0.335617,-0.345158 -1.18935,-1.221267 -2.178478,-1.480153 -5.016376,-1.294371 -8.491636,-2.911072 -9.851701,-4.084658 -1.695676,-1.466952 -1.969426,-2.425066 -1.969424,-4.979331 -2e-6,-2.554225 0.73449,-4.695027 2.394839,-6.231053 1.660341,-1.535974 4.071374,-2.303973 7.233107,-2.304 3.020403,2.7e-5 7.268292,0.797284 9.339407,3.255827 l -3.45305,3.7562 c -1.947465,-1.634972 -3.395851,-1.7827 -5.780377,-1.782722 -1.501388,2.2e-5 -2.282971,0.215753 -2.91884,0.647191 -0.635885,0.414224 -0.953823,0.957864 -0.953816,1.630921 -7e-6,0.604065 0.291435,1.104559 0.874332,1.501484 0.582878,0.414221 2.106318,1.035524 5.14441,1.863911 3.408993,0.931971 5.722878,2.062397 6.941663,3.39128 1.20108,1.328913 1.80163,3.0979 1.801653,5.306968 -2.3e-5,2.657804 -0.936175,4.849624 -2.808459,6.575463 -1.854661,1.725844 -4.13762,3.067171 -7.422971,3.06717 -4.228954,-10e-7 -9.873737,-1.493943 -11.431097,-4.255298"
       style="font-size:53.81440353px;font-style:normal;font-variant:normal;font-weight:bold;font-stretch:normal;text-align:start;line-height:100%;writing-mode:lr-tb;text-anchor:start;fill:#ffffff;fill-opacity:1;stroke:none;font-family:Arial Narrow"
       inkscape:connector-curvature="0" />
    <path
       sodipodi:nodetypes="ccccc"
       id="rect2247"
       d="m 12.187615,-70.54866 5.802823,0.04135 0,56.072166 -5.802823,-0.04135 0,-56.072166 z"
       style="fill:#ffffff;fill-opacity:1;fill-rule:nonzero;stroke:none"
       transform="matrix(-0.408348,0.912826,-0.911726,-0.410798,0,0)"
       inkscape:connector-curvature="0" />
    <path
       id="rect2278"
       d="m 30.375,12.875 0,6.84375 3.25,0 0,-6.84375 -3.25,0 z m 0,32.09375 0,6.15625 3.25,0 0,-6.15625 -3.25,0 z"
       style="fill:#ffffff;fill-opacity:1;fill-rule:nonzero;stroke:none"
       inkscape:connector-curvature="0" />
  </g>
</svg>
