<?xml version="1.0" encoding="UTF-8" standalone="no"?>
<!-- Generator: Adobe Illustrator 17.0.0, SVG Export Plug-In . SVG Version: 6.00 Build 0)  -->

<svg
   xmlns:dc="http://purl.org/dc/elements/1.1/"
   xmlns:cc="http://creativecommons.org/ns#"
   xmlns:rdf="http://www.w3.org/1999/02/22-rdf-syntax-ns#"
   xmlns:svg="http://www.w3.org/2000/svg"
   xmlns="http://www.w3.org/2000/svg"
   xmlns:sodipodi="http://sodipodi.sourceforge.net/DTD/sodipodi-0.dtd"
   xmlns:inkscape="http://www.inkscape.org/namespaces/inkscape"
   version="1.1"
   x="0px"
   y="0px"
   width="400.26044"
   height="32.0005"
   viewBox="-149.98 0 400.26044 32.0005"
   enable-background="new -149.98 0 800.5 64"
   xml:space="preserve"
   id="svg2"
   inkscape:version="0.48.3.1 r9886"
   sodipodi:docname="cd_delay.flat.guokr.svg"><metadata
   id="metadata145"><rdf:RDF><cc:Work
       rdf:about=""><dc:format>image/svg+xml</dc:format><dc:type
         rdf:resource="http://purl.org/dc/dcmitype/StillImage" /><dc:title></dc:title></cc:Work></rdf:RDF></metadata><defs
   id="defs143" /><sodipodi:namedview
   pagecolor="#ffffff"
   bordercolor="#666666"
   borderopacity="1"
   objecttolerance="10"
   gridtolerance="10"
   guidetolerance="10"
   inkscape:pageopacity="0"
   inkscape:pageshadow="2"
   inkscape:window-width="1137"
   inkscape:window-height="692"
   id="namedview141"
   showgrid="false"
   fit-margin-top="0"
   fit-margin-left="0"
   fit-margin-right="0"
   fit-margin-bottom="0"
   inkscape:zoom="0.84697064"
   inkscape:cx="200.14066"
   inkscape:cy="16.00075"
   inkscape:window-x="0"
   inkscape:window-y="24"
   inkscape:window-maximized="0"
   inkscape:current-layer="svg2" />
<g
   id="g4"
   sodipodi:docname="cc_byncnd.flat.guokr.svg"
   inkscape:version="0.48.2 r9819"
   transform="matrix(0.5,0,0,0.5,-74.979561,0)">
	
		<sodipodi:namedview
   showguides="true"
   fit-margin-left="0"
   fit-margin-top="0"
   inkscape:cy="32"
   inkscape:cx="175.51968"
   inkscape:zoom="2.72619"
   showgrid="true"
   guidetolerance="10"
   gridtolerance="10"
   objecttolerance="10"
   borderopacity="1"
   pagecolor="#ffffff"
   bordercolor="#666666"
   id="namedview31"
   inkscape:snap-global="false"
   inkscape:guide-bbox="true"
   inkscape:snap-page="false"
   inkscape:snap-grids="true"
   fit-margin-bottom="0"
   fit-margin-right="0"
   inkscape:current-layer="svg2"
   inkscape:window-maximized="0"
   inkscape:window-y="367"
   inkscape:window-x="102"
   inkscape:window-height="746"
   inkscape:window-width="1088"
   inkscape:pageshadow="2"
   inkscape:pageopacity="0">
		<sodipodi:guide
   position="24.952733,105.26934"
   orientation="1,0"
   id="guide3057" />
		<sodipodi:guide
   position="74.858199,102.93002"
   orientation="1,0"
   id="guide3059" />
		<sodipodi:guide
   position="-5.0685239,58.872855"
   orientation="0,1"
   id="guide3061" />
		<sodipodi:guide
   position="-22.613414,5.8482968"
   orientation="0,1"
   id="guide3063" />
		<inkscape:grid
   type="xygrid"
   enabled="true"
   empspacing="5"
   visible="true"
   id="grid3065"
   snapvisiblegridlinesonly="true">
			</inkscape:grid>
		<sodipodi:guide
   position="124.98094,66.588207"
   orientation="1,0"
   id="guide3067" />
		<sodipodi:guide
   position="174.83673,100.39453"
   orientation="1,0"
   id="guide3069" />
		<sodipodi:guide
   position="200.1061,86.393931"
   orientation="1,0"
   id="guide3071" />
		<sodipodi:guide
   position="249.96189,84.345063"
   orientation="1,0"
   id="guide3073" />
		<sodipodi:guide
   position="274.88978,61.466038"
   orientation="1,0"
   id="guide3075" />
		<sodipodi:guide
   position="325.08704,51.563176"
   orientation="1,0"
   id="guide3077" />
	</sodipodi:namedview>
	<path
   id="rect13"
   d="M -144.983,0.006 88.382,0 c 7.368,0 13.07,2.358 13.07,5.267 V 58.733 C 101.452,61.642 95.75,64 88.717,64 H -144.73 c -5.466,0 -5.27,-2.358 -5.27,-5.267 V 5.267 c 0,-2.909 -0.188,-5.267 5.017,-5.261 z"
   inkscape:connector-curvature="0"
   style="fill:#555555" />
	<path
   id="rect3034"
   d="m 107.727,0 h 536.517 c 3.466,0 6.276,2.81 6.276,6.276 v 51.449 c 0,3.466 -2.81,6.276 -6.276,6.276 H 107.727 c -3.466,0 -6.276,-2.81 -6.276,-6.276 V 6.276 C 101.452,2.81 104.262,0 107.727,0 z"
   inkscape:connector-curvature="0"
   style="fill:#f37526" />
	<path
   id="path17"
   inkscape:connector-curvature="0"
   d="m 92.22,0 h 35.688 V 64 H 92.22 l 0,-64 z"
   style="fill:#f37526" />
	<g
   id="layer3"
   transform="matrix(0.78125,0,0,0.78125,125.1302,6.798057)"
   inkscape:label="Dessin">
		<path
   id="path1334"
   inkscape:connector-curvature="0"
   d="m 258.957,0 c -17.283,0.438 -31.187,14.612 -31.187,32 0,17.664 14.336,32 32,32 17.664,0 32,-14.336 32,-32 0,-17.664 -14.336,-32 -32,-32 -0.276,0 -0.539,-0.007 -0.813,0 z m -0.031,5.5 c 0.284,-0.009 0.558,0 0.844,0 14.628,0 26.5,11.872 26.5,26.5 0,14.628 -11.872,26.5 -26.5,26.5 -14.628,0 -26.5,-11.872 -26.5,-26.5 0,-14.342 11.422,-26.049 25.656,-26.5 z"
   style="fill:#ffffff" />
	</g>
	<g
   id="g3001"
   transform="matrix(0.78998926,0,0,0.78890484,24.562303,6.561046)">
		<path
   id="path4"
   inkscape:connector-curvature="0"
   d="m -157.919,0.311 c -8.682,0 -16.322,3.213 -22.226,9.203 -6.078,6.164 -9.377,14.152 -9.377,22.486 0,8.422 3.212,16.236 9.29,22.313 6.078,6.078 13.978,9.377 22.313,9.377 8.334,0 16.409,-3.299 22.66,-9.463 5.904,-5.817 9.029,-13.544 9.029,-22.227 0,-8.595 -3.125,-16.408 -9.116,-22.399 -6.077,-6.078 -13.891,-9.29 -22.573,-9.29 z m 0.086,5.73 c 7.12,0 13.458,2.691 18.406,7.641 4.862,4.861 7.466,11.286 7.466,18.318 0,7.119 -2.518,13.371 -7.379,18.146 -5.123,5.035 -11.721,7.727 -18.493,7.727 -6.858,0 -13.283,-2.691 -18.232,-7.641 -4.949,-4.949 -7.727,-11.46 -7.727,-18.232 0,-6.858 2.778,-13.369 7.727,-18.406 4.862,-4.948 11.113,-7.553 18.232,-7.553 z"
   style="fill:#ffffff" />
		<path
   id="c"
   inkscape:connector-curvature="0"
   d="m -160.773,26.734 c -1.79,-3.264 -4.844,-4.563 -8.389,-4.563 -5.16,0 -9.267,3.65 -9.267,9.828 0,6.283 3.861,9.829 9.442,9.829 3.581,0 6.635,-1.966 8.319,-4.949 l -3.931,-2.001 c -0.878,2.105 -2.212,2.738 -3.896,2.738 -2.914,0 -4.248,-2.422 -4.248,-5.617 0,-3.193 1.124,-5.616 4.248,-5.616 0.842,0 2.527,0.456 3.51,2.563 l 4.212,-2.212 z"
   style="fill:#ffffff" />
	</g>
	<g
   id="g3118"
   transform="matrix(0.78125,0,0,0.78125,200.38329,6.7410061)">
		<path
   id="path1334-2"
   inkscape:connector-curvature="0"
   d="m -65.278,0 c -17.283,0.438 -31.188,14.612 -31.188,32 0,17.664 14.336,32 32,32 17.664,0 32,-14.336 32,-32 0,-17.664 -14.336,-32 -32,-32 -0.275,0 -0.538,-0.007 -0.812,0 z m -0.031,5.5 c 0.284,-0.009 0.558,0 0.844,0 14.628,0 26.5,11.872 26.5,26.5 0,14.628 -11.872,26.5 -26.5,26.5 -14.628,0 -26.5,-11.872 -26.5,-26.5 0,-14.342 11.423,-26.049 25.656,-26.5 z"
   style="fill:#ffffff" />
		<path
   id="rect2247"
   sodipodi:nodetypes="ccccc"
   inkscape:connector-curvature="0"
   d="m -35.824,28.453 -0.052,5.803 -56.072,-0.25 0.052,-5.803 56.072,0.25 z"
   style="fill:#ffffff" />
	</g>
	<g
   id="g3044"
   transform="matrix(0.78125,0,0,0.78125,274.79886,6.7898746)">
		<path
   id="path1334-3"
   inkscape:connector-curvature="0"
   d="m 287.505,0 c -17.283,0.438 -31.188,14.612 -31.188,32 0,17.664 14.336,32 32,32 17.664,0 32,-14.336 32,-32 0,-17.664 -14.336,-32 -32,-32 -0.275,0 -0.537,-0.007 -0.812,0 z m -0.031,5.5 c 0.284,-0.009 0.558,0 0.844,0 14.628,0 26.5,11.872 26.5,26.5 0,14.628 -11.872,26.5 -26.5,26.5 -14.628,0 -26.5,-11.872 -26.5,-26.5 0,-14.342 11.423,-26.049 25.656,-26.5 z"
   style="fill:#ffffff" />
	</g>
	<g
   id="g31">
		<path
   d="m 192.25,20.486 1.326,0.335 c -0.278,1.089 -0.778,1.92 -1.5,2.491 -0.723,0.572 -1.605,0.858 -2.649,0.858 -1.08,0 -1.958,-0.22 -2.636,-0.659 -0.676,-0.44 -1.191,-1.077 -1.545,-1.911 -0.353,-0.834 -0.529,-1.729 -0.529,-2.687 0,-1.044 0.199,-1.954 0.598,-2.73 0.399,-0.777 0.967,-1.367 1.703,-1.771 0.735,-0.402 1.546,-0.604 2.43,-0.604 1.003,0 1.846,0.255 2.529,0.766 0.683,0.511 1.16,1.229 1.429,2.153 l -1.306,0.308 c -0.232,-0.729 -0.569,-1.26 -1.012,-1.593 -0.443,-0.333 -0.998,-0.499 -1.668,-0.499 -0.771,0 -1.414,0.185 -1.932,0.554 -0.517,0.369 -0.88,0.865 -1.09,1.486 -0.21,0.623 -0.314,1.264 -0.314,1.925 0,0.853 0.124,1.597 0.373,2.231 0.248,0.637 0.634,1.111 1.158,1.426 0.524,0.315 1.092,0.472 1.702,0.472 0.743,0 1.372,-0.214 1.887,-0.643 0.515,-0.429 0.864,-1.065 1.046,-1.908 z"
   id="path33"
   inkscape:connector-curvature="0"
   style="fill:#ffffff" />
		<path
   d="m 194.595,20.37 c 0,-1.345 0.374,-2.34 1.121,-2.987 0.624,-0.538 1.386,-0.807 2.283,-0.807 0.998,0 1.813,0.327 2.447,0.98 0.634,0.654 0.95,1.558 0.95,2.711 0,0.935 -0.14,1.669 -0.421,2.205 -0.279,0.535 -0.688,0.951 -1.223,1.247 -0.536,0.296 -1.12,0.444 -1.754,0.444 -1.017,0 -1.838,-0.326 -2.465,-0.978 -0.625,-0.65 -0.938,-1.589 -0.938,-2.815 z m 1.265,0 c 0,0.93 0.203,1.626 0.608,2.089 0.405,0.462 0.916,0.693 1.531,0.693 0.61,0 1.119,-0.232 1.524,-0.697 0.405,-0.465 0.608,-1.174 0.608,-2.126 0,-0.897 -0.204,-1.578 -0.611,-2.04 -0.408,-0.463 -0.915,-0.694 -1.521,-0.694 -0.615,0 -1.126,0.23 -1.531,0.69 -0.405,0.46 -0.608,1.155 -0.608,2.085 z"
   id="path35"
   inkscape:connector-curvature="0"
   style="fill:#ffffff" />
		<path
   d="M 202.839,26.782 V 16.74 h 1.121 v 0.943 c 0.265,-0.369 0.563,-0.646 0.896,-0.83 0.333,-0.186 0.736,-0.277 1.21,-0.277 0.62,0 1.167,0.159 1.641,0.479 0.474,0.32 0.832,0.77 1.073,1.35 0.241,0.582 0.362,1.219 0.362,1.911 0,0.743 -0.134,1.411 -0.399,2.007 -0.268,0.594 -0.654,1.05 -1.162,1.367 -0.509,0.316 -1.043,0.475 -1.604,0.475 -0.41,0 -0.778,-0.087 -1.104,-0.26 -0.326,-0.173 -0.594,-0.392 -0.804,-0.656 v 3.534 h -1.23 z m 1.114,-6.371 c 0,0.935 0.189,1.625 0.567,2.071 0.378,0.446 0.836,0.67 1.374,0.67 0.547,0 1.016,-0.231 1.404,-0.693 0.391,-0.463 0.585,-1.18 0.585,-2.15 0,-0.925 -0.19,-1.618 -0.571,-2.078 -0.38,-0.46 -0.835,-0.69 -1.363,-0.69 -0.524,0 -0.988,0.245 -1.391,0.735 -0.404,0.489 -0.605,1.201 -0.605,2.135 z"
   id="path37"
   inkscape:connector-curvature="0"
   style="fill:#ffffff" />
		<path
   d="m 210.57,26.796 -0.137,-1.155 c 0.269,0.073 0.504,0.109 0.704,0.109 0.273,0 0.492,-0.046 0.656,-0.137 0.164,-0.091 0.299,-0.219 0.403,-0.383 0.077,-0.123 0.203,-0.429 0.376,-0.916 0.022,-0.068 0.06,-0.169 0.109,-0.301 l -2.755,-7.273 h 1.326 l 1.511,4.204 c 0.196,0.533 0.371,1.094 0.526,1.682 0.142,-0.565 0.31,-1.116 0.506,-1.654 l 1.552,-4.231 h 1.23 l -2.762,7.383 c -0.296,0.798 -0.526,1.347 -0.69,1.647 -0.219,0.405 -0.47,0.703 -0.752,0.892 -0.282,0.189 -0.62,0.284 -1.012,0.284 -0.235,-10e-4 -0.499,-0.051 -0.791,-0.151 z"
   id="path39"
   inkscape:connector-curvature="0"
   style="fill:#ffffff" />
		<path
   d="M 217.782,24 V 13.979 h 3.452 c 0.779,0 1.374,0.048 1.784,0.144 0.574,0.132 1.064,0.371 1.47,0.718 0.528,0.446 0.924,1.018 1.187,1.713 0.262,0.694 0.393,1.488 0.393,2.382 0,0.761 -0.089,1.436 -0.267,2.023 -0.178,0.587 -0.405,1.074 -0.684,1.46 -0.278,0.385 -0.582,0.688 -0.913,0.908 -0.33,0.222 -0.729,0.389 -1.195,0.503 -0.468,0.114 -1.004,0.171 -1.61,0.171 h -3.617 z m 1.327,-1.183 h 2.14 c 0.661,0 1.179,-0.062 1.556,-0.185 0.375,-0.123 0.675,-0.296 0.898,-0.52 0.314,-0.314 0.56,-0.737 0.734,-1.268 0.176,-0.531 0.264,-1.175 0.264,-1.932 0,-1.048 -0.172,-1.854 -0.516,-2.416 -0.345,-0.563 -0.763,-0.94 -1.255,-1.132 -0.355,-0.137 -0.928,-0.205 -1.716,-0.205 h -2.105 v 7.658 z"
   id="path41"
   inkscape:connector-curvature="0"
   style="fill:#ffffff" />
		<path
   d="m 232.705,21.662 1.271,0.157 c -0.2,0.743 -0.572,1.319 -1.114,1.729 -0.542,0.41 -1.235,0.615 -2.078,0.615 -1.062,0 -1.903,-0.327 -2.526,-0.98 -0.621,-0.654 -0.933,-1.571 -0.933,-2.752 0,-1.222 0.314,-2.169 0.943,-2.844 0.629,-0.675 1.444,-1.012 2.447,-1.012 0.971,0 1.764,0.33 2.379,0.991 0.615,0.661 0.923,1.591 0.923,2.789 0,0.073 -0.002,0.183 -0.007,0.328 h -5.414 c 0.046,0.798 0.271,1.408 0.677,1.832 0.406,0.424 0.911,0.636 1.518,0.636 0.451,0 0.836,-0.118 1.155,-0.355 0.319,-0.237 0.573,-0.614 0.759,-1.134 z m -4.04,-1.989 h 4.054 c -0.055,-0.61 -0.21,-1.068 -0.465,-1.374 -0.392,-0.474 -0.9,-0.711 -1.524,-0.711 -0.565,0 -1.04,0.189 -1.425,0.567 -0.386,0.378 -0.599,0.884 -0.64,1.518 z"
   id="path43"
   inkscape:connector-curvature="0"
   style="fill:#ffffff" />
		<path
   d="M 235.494,24 V 13.979 h 1.23 V 24 h -1.23 z"
   id="path45"
   inkscape:connector-curvature="0"
   style="fill:#ffffff" />
		<path
   d="m 243.369,23.104 c -0.456,0.388 -0.895,0.661 -1.316,0.82 -0.421,0.159 -0.873,0.239 -1.356,0.239 -0.798,0 -1.41,-0.195 -1.839,-0.584 -0.429,-0.391 -0.643,-0.888 -0.643,-1.494 0,-0.355 0.081,-0.68 0.242,-0.975 0.162,-0.293 0.374,-0.529 0.637,-0.707 0.262,-0.178 0.557,-0.313 0.885,-0.403 0.241,-0.063 0.606,-0.125 1.094,-0.185 0.993,-0.118 1.725,-0.26 2.194,-0.424 0.005,-0.169 0.007,-0.275 0.007,-0.321 0,-0.501 -0.116,-0.854 -0.349,-1.06 -0.314,-0.278 -0.781,-0.417 -1.401,-0.417 -0.579,0 -1.006,0.102 -1.281,0.304 -0.276,0.203 -0.48,0.563 -0.612,1.077 l -1.203,-0.164 c 0.109,-0.515 0.289,-0.931 0.54,-1.247 0.251,-0.317 0.613,-0.561 1.087,-0.732 0.474,-0.17 1.023,-0.256 1.647,-0.256 0.62,0 1.123,0.073 1.511,0.219 0.388,0.146 0.672,0.329 0.854,0.551 0.183,0.221 0.31,0.5 0.383,0.837 0.041,0.21 0.062,0.588 0.062,1.135 v 1.641 c 0,1.144 0.026,1.867 0.079,2.171 0.052,0.303 0.155,0.593 0.311,0.871 h -1.285 c -0.13,-0.255 -0.212,-0.554 -0.248,-0.896 z m -0.102,-2.748 c -0.446,0.183 -1.116,0.337 -2.01,0.465 -0.506,0.073 -0.863,0.155 -1.073,0.246 -0.21,0.091 -0.371,0.225 -0.485,0.399 -0.114,0.176 -0.171,0.371 -0.171,0.585 0,0.328 0.124,0.602 0.373,0.82 0.248,0.219 0.611,0.328 1.09,0.328 0.474,0 0.896,-0.104 1.265,-0.312 0.369,-0.207 0.641,-0.49 0.813,-0.851 0.132,-0.278 0.198,-0.688 0.198,-1.23 v -0.45 z"
   id="path47"
   inkscape:connector-curvature="0"
   style="fill:#ffffff" />
		<path
   d="m 246.363,26.796 -0.137,-1.155 c 0.269,0.073 0.504,0.109 0.704,0.109 0.273,0 0.492,-0.046 0.656,-0.137 0.164,-0.091 0.299,-0.219 0.403,-0.383 0.077,-0.123 0.203,-0.429 0.376,-0.916 0.022,-0.068 0.06,-0.169 0.109,-0.301 l -2.755,-7.273 h 1.326 l 1.511,4.204 c 0.196,0.533 0.371,1.094 0.526,1.682 0.142,-0.565 0.31,-1.116 0.506,-1.654 l 1.552,-4.231 h 1.23 l -2.762,7.383 c -0.296,0.798 -0.526,1.347 -0.69,1.647 -0.219,0.405 -0.47,0.703 -0.752,0.892 -0.282,0.189 -0.62,0.284 -1.012,0.284 -0.235,-10e-4 -0.499,-0.051 -0.791,-0.151 z"
   id="path49"
   inkscape:connector-curvature="0"
   style="fill:#ffffff" />
		<path
   d="M 362.486,24 V 13.979 h 3.452 c 0.779,0 1.374,0.048 1.784,0.144 0.574,0.132 1.064,0.371 1.47,0.718 0.528,0.446 0.924,1.018 1.187,1.713 0.262,0.694 0.393,1.488 0.393,2.382 0,0.761 -0.089,1.436 -0.267,2.023 -0.178,0.587 -0.405,1.074 -0.684,1.46 -0.278,0.385 -0.582,0.688 -0.913,0.908 -0.33,0.222 -0.729,0.389 -1.195,0.503 -0.468,0.114 -1.004,0.171 -1.61,0.171 h -3.617 z m 1.326,-1.183 h 2.14 c 0.661,0 1.179,-0.062 1.556,-0.185 0.375,-0.123 0.675,-0.296 0.898,-0.52 0.314,-0.314 0.56,-0.737 0.734,-1.268 0.176,-0.531 0.264,-1.175 0.264,-1.932 0,-1.048 -0.172,-1.854 -0.516,-2.416 -0.345,-0.563 -0.763,-0.94 -1.255,-1.132 -0.355,-0.137 -0.928,-0.205 -1.716,-0.205 h -2.105 v 7.658 z"
   id="path51"
   inkscape:connector-curvature="0"
   style="fill:#ffffff" />
		<path
   d="m 377.408,21.662 1.271,0.157 c -0.2,0.743 -0.572,1.319 -1.114,1.729 -0.542,0.41 -1.235,0.615 -2.078,0.615 -1.062,0 -1.903,-0.327 -2.526,-0.98 -0.621,-0.654 -0.933,-1.571 -0.933,-2.752 0,-1.222 0.314,-2.169 0.943,-2.844 0.629,-0.675 1.444,-1.012 2.447,-1.012 0.971,0 1.764,0.33 2.379,0.991 0.615,0.661 0.923,1.591 0.923,2.789 0,0.073 -0.002,0.183 -0.007,0.328 H 373.3 c 0.046,0.798 0.271,1.408 0.677,1.832 0.406,0.424 0.911,0.636 1.518,0.636 0.451,0 0.836,-0.118 1.155,-0.355 0.319,-0.237 0.572,-0.614 0.758,-1.134 z m -4.04,-1.989 h 4.054 c -0.055,-0.61 -0.21,-1.068 -0.465,-1.374 -0.392,-0.474 -0.9,-0.711 -1.524,-0.711 -0.565,0 -1.04,0.189 -1.425,0.567 -0.386,0.378 -0.599,0.884 -0.64,1.518 z"
   id="path53"
   inkscape:connector-curvature="0"
   style="fill:#ffffff" />
		<path
   d="M 380.197,24 V 13.979 h 1.23 V 24 h -1.23 z"
   id="path55"
   inkscape:connector-curvature="0"
   style="fill:#ffffff" />
		<path
   d="m 388.072,23.104 c -0.456,0.388 -0.895,0.661 -1.316,0.82 -0.421,0.159 -0.873,0.239 -1.356,0.239 -0.798,0 -1.41,-0.195 -1.839,-0.584 -0.429,-0.391 -0.643,-0.888 -0.643,-1.494 0,-0.355 0.081,-0.68 0.242,-0.975 0.162,-0.293 0.374,-0.529 0.637,-0.707 0.262,-0.178 0.557,-0.313 0.885,-0.403 0.241,-0.063 0.606,-0.125 1.094,-0.185 0.993,-0.118 1.725,-0.26 2.194,-0.424 0.005,-0.169 0.007,-0.275 0.007,-0.321 0,-0.501 -0.116,-0.854 -0.349,-1.06 -0.314,-0.278 -0.781,-0.417 -1.401,-0.417 -0.579,0 -1.006,0.102 -1.281,0.304 -0.276,0.203 -0.48,0.563 -0.612,1.077 l -1.203,-0.164 c 0.109,-0.515 0.289,-0.931 0.54,-1.247 0.251,-0.317 0.613,-0.561 1.087,-0.732 0.474,-0.17 1.023,-0.256 1.647,-0.256 0.62,0 1.123,0.073 1.511,0.219 0.388,0.146 0.672,0.329 0.854,0.551 0.183,0.221 0.31,0.5 0.383,0.837 0.041,0.21 0.062,0.588 0.062,1.135 v 1.641 c 0,1.144 0.026,1.867 0.079,2.171 0.052,0.303 0.155,0.593 0.311,0.871 h -1.285 c -0.129,-0.255 -0.211,-0.554 -0.248,-0.896 z m -0.102,-2.748 c -0.446,0.183 -1.116,0.337 -2.01,0.465 -0.506,0.073 -0.863,0.155 -1.073,0.246 -0.21,0.091 -0.371,0.225 -0.485,0.399 -0.114,0.176 -0.171,0.371 -0.171,0.585 0,0.328 0.124,0.602 0.373,0.82 0.248,0.219 0.611,0.328 1.09,0.328 0.474,0 0.896,-0.104 1.265,-0.312 0.369,-0.207 0.641,-0.49 0.813,-0.851 0.132,-0.278 0.198,-0.688 0.198,-1.23 v -0.45 z"
   id="path57"
   inkscape:connector-curvature="0"
   style="fill:#ffffff" />
		<path
   d="m 391.067,26.796 -0.137,-1.155 c 0.269,0.073 0.504,0.109 0.704,0.109 0.273,0 0.492,-0.046 0.656,-0.137 0.164,-0.091 0.299,-0.219 0.403,-0.383 0.077,-0.123 0.203,-0.429 0.376,-0.916 0.022,-0.068 0.06,-0.169 0.109,-0.301 l -2.755,-7.273 h 1.326 l 1.511,4.204 c 0.196,0.533 0.371,1.094 0.526,1.682 0.142,-0.565 0.31,-1.116 0.506,-1.654 l 1.552,-4.231 h 1.23 l -2.762,7.383 c -0.296,0.798 -0.526,1.347 -0.69,1.647 -0.219,0.405 -0.47,0.703 -0.752,0.892 -0.282,0.189 -0.62,0.284 -1.012,0.284 -0.236,-10e-4 -0.499,-0.051 -0.791,-0.151 z"
   id="path59"
   inkscape:connector-curvature="0"
   style="fill:#ffffff" />
		<path
   d="M 408.136,22.817 V 24 h -6.624 c -0.009,-0.296 0.039,-0.581 0.144,-0.854 0.169,-0.451 0.438,-0.896 0.81,-1.333 0.372,-0.438 0.908,-0.943 1.61,-1.518 1.089,-0.894 1.825,-1.601 2.208,-2.123 0.383,-0.521 0.574,-1.015 0.574,-1.479 0,-0.487 -0.174,-0.899 -0.523,-1.233 -0.348,-0.336 -0.803,-0.503 -1.363,-0.503 -0.593,0 -1.066,0.178 -1.422,0.533 -0.356,0.355 -0.535,0.848 -0.54,1.477 l -1.265,-0.13 c 0.087,-0.943 0.412,-1.662 0.978,-2.156 0.565,-0.495 1.324,-0.742 2.276,-0.742 0.962,0 1.723,0.267 2.283,0.8 0.56,0.533 0.841,1.194 0.841,1.982 0,0.401 -0.082,0.795 -0.246,1.183 -0.164,0.388 -0.437,0.795 -0.817,1.224 -0.38,0.429 -1.013,1.017 -1.896,1.764 -0.738,0.62 -1.212,1.04 -1.422,1.261 -0.21,0.222 -0.383,0.443 -0.52,0.667 h 4.914 z"
   id="path61"
   inkscape:connector-curvature="0"
   style="fill:#ffffff" />
		<path
   d="m 413.4,24 v -2.399 h -4.348 v -1.128 l 4.573,-6.494 h 1.005 v 6.494 h 1.354 v 1.128 H 414.63 V 24 h -1.23 z m 0,-3.527 v -4.519 l -3.138,4.519 h 3.138 z"
   id="path63"
   inkscape:connector-curvature="0"
   style="fill:#ffffff" />
		<path
   d="M 421.671,24 V 13.979 h 1.326 v 4.115 h 5.209 v -4.115 h 1.326 V 24 h -1.326 v -4.724 h -5.209 V 24 h -1.326 z"
   id="path65"
   inkscape:connector-curvature="0"
   style="fill:#ffffff" />
		<path
   d="m 431.125,20.37 c 0,-1.345 0.374,-2.34 1.121,-2.987 0.624,-0.538 1.386,-0.807 2.283,-0.807 0.998,0 1.813,0.327 2.447,0.98 0.634,0.654 0.95,1.558 0.95,2.711 0,0.935 -0.14,1.669 -0.421,2.205 -0.279,0.535 -0.688,0.951 -1.223,1.247 -0.536,0.296 -1.12,0.444 -1.754,0.444 -1.017,0 -1.838,-0.326 -2.465,-0.978 -0.624,-0.65 -0.938,-1.589 -0.938,-2.815 z m 1.265,0 c 0,0.93 0.203,1.626 0.608,2.089 0.405,0.462 0.916,0.693 1.531,0.693 0.61,0 1.119,-0.232 1.524,-0.697 0.405,-0.465 0.608,-1.174 0.608,-2.126 0,-0.897 -0.204,-1.578 -0.611,-2.04 -0.408,-0.463 -0.915,-0.694 -1.521,-0.694 -0.615,0 -1.126,0.23 -1.531,0.69 -0.405,0.46 -0.608,1.155 -0.608,2.085 z"
   id="path67"
   inkscape:connector-curvature="0"
   style="fill:#ffffff" />
		<path
   d="m 444.127,24 v -1.066 c -0.565,0.82 -1.333,1.23 -2.304,1.23 -0.429,0 -0.828,-0.082 -1.199,-0.246 -0.372,-0.164 -0.647,-0.37 -0.828,-0.619 -0.18,-0.248 -0.306,-0.552 -0.379,-0.912 -0.05,-0.241 -0.075,-0.624 -0.075,-1.148 V 16.74 h 1.23 v 4.026 c 0,0.643 0.025,1.075 0.075,1.299 0.077,0.323 0.241,0.577 0.492,0.763 0.251,0.184 0.561,0.276 0.93,0.276 0.369,0 0.716,-0.095 1.039,-0.284 0.323,-0.188 0.553,-0.446 0.688,-0.771 0.134,-0.326 0.201,-0.799 0.201,-1.419 v -3.89 h 1.23 V 24 h -1.1 z"
   id="path69"
   inkscape:connector-curvature="0"
   style="fill:#ffffff" />
		<path
   d="m 447.142,24 v -7.26 h 1.107 v 1.101 c 0.282,-0.515 0.544,-0.854 0.782,-1.019 0.24,-0.164 0.503,-0.246 0.79,-0.246 0.415,0 0.836,0.132 1.265,0.396 l -0.424,1.142 c -0.301,-0.178 -0.602,-0.267 -0.902,-0.267 -0.269,0 -0.511,0.081 -0.725,0.242 -0.214,0.162 -0.367,0.387 -0.458,0.674 -0.137,0.438 -0.205,0.916 -0.205,1.436 V 24 h -1.23 z"
   id="path71"
   inkscape:connector-curvature="0"
   style="fill:#ffffff" />
		<path
   d="m 451.325,21.833 1.217,-0.191 c 0.068,0.487 0.259,0.861 0.571,1.121 0.312,0.26 0.748,0.39 1.309,0.39 0.565,0 0.984,-0.115 1.258,-0.346 0.273,-0.229 0.41,-0.5 0.41,-0.81 0,-0.278 -0.121,-0.497 -0.362,-0.656 -0.169,-0.109 -0.588,-0.248 -1.258,-0.417 -0.902,-0.228 -1.528,-0.425 -1.876,-0.592 -0.35,-0.166 -0.613,-0.396 -0.793,-0.689 -0.181,-0.295 -0.271,-0.619 -0.271,-0.975 0,-0.323 0.074,-0.623 0.222,-0.898 0.148,-0.276 0.351,-0.505 0.605,-0.688 0.191,-0.142 0.452,-0.261 0.783,-0.359 0.33,-0.098 0.685,-0.146 1.063,-0.146 0.569,0 1.07,0.082 1.5,0.246 0.432,0.164 0.749,0.387 0.954,0.666 0.205,0.281 0.347,0.655 0.424,1.125 l -1.203,0.164 c -0.055,-0.374 -0.213,-0.665 -0.476,-0.875 -0.262,-0.21 -0.632,-0.314 -1.11,-0.314 -0.565,0 -0.969,0.094 -1.21,0.28 -0.241,0.186 -0.362,0.405 -0.362,0.656 0,0.159 0.05,0.303 0.15,0.431 0.101,0.132 0.258,0.241 0.472,0.328 0.123,0.046 0.485,0.15 1.087,0.314 0.87,0.232 1.478,0.423 1.821,0.57 0.345,0.148 0.614,0.364 0.811,0.646 0.197,0.282 0.294,0.634 0.294,1.053 0,0.41 -0.12,0.797 -0.358,1.158 -0.24,0.363 -0.585,0.643 -1.036,0.842 -0.451,0.197 -0.962,0.297 -1.531,0.297 -0.943,0 -1.662,-0.196 -2.157,-0.588 -0.496,-0.391 -0.811,-0.972 -0.948,-1.743 z"
   id="path73"
   inkscape:connector-curvature="0"
   style="fill:#ffffff" />
		<path
   d="m 536.364,19.119 c 0,-1.663 0.446,-2.966 1.34,-3.906 0.894,-0.941 2.046,-1.412 3.459,-1.412 0.925,0 1.759,0.221 2.502,0.663 0.743,0.442 1.31,1.059 1.698,1.849 0.391,0.791 0.585,1.688 0.585,2.69 0,1.017 -0.205,1.926 -0.615,2.728 -0.41,0.802 -0.991,1.409 -1.743,1.822 -0.752,0.412 -1.563,0.618 -2.434,0.618 -0.943,0 -1.786,-0.228 -2.529,-0.684 -0.743,-0.456 -1.306,-1.078 -1.688,-1.866 -0.382,-0.788 -0.575,-1.622 -0.575,-2.502 z m 1.368,0.021 c 0,1.208 0.325,2.159 0.974,2.854 0.65,0.694 1.465,1.042 2.444,1.042 0.998,0 1.819,-0.351 2.464,-1.053 0.646,-0.702 0.968,-1.697 0.968,-2.987 0,-0.815 -0.138,-1.527 -0.413,-2.137 -0.276,-0.607 -0.68,-1.08 -1.211,-1.414 -0.53,-0.336 -1.126,-0.503 -1.787,-0.503 -0.938,0 -1.746,0.322 -2.424,0.968 -0.677,0.645 -1.015,1.721 -1.015,3.23 z"
   id="path75"
   inkscape:connector-curvature="0"
   style="fill:#ffffff" />
		<path
   d="M 547.5,26.782 V 16.74 h 1.121 v 0.943 c 0.265,-0.369 0.563,-0.646 0.896,-0.83 0.333,-0.186 0.736,-0.277 1.21,-0.277 0.62,0 1.167,0.159 1.641,0.479 0.474,0.32 0.832,0.77 1.073,1.35 0.241,0.582 0.362,1.219 0.362,1.911 0,0.743 -0.134,1.411 -0.399,2.007 -0.268,0.594 -0.654,1.05 -1.162,1.367 -0.509,0.316 -1.043,0.475 -1.604,0.475 -0.41,0 -0.778,-0.087 -1.104,-0.26 -0.326,-0.173 -0.594,-0.392 -0.804,-0.656 v 3.534 h -1.23 z m 1.114,-6.371 c 0,0.935 0.189,1.625 0.567,2.071 0.378,0.446 0.836,0.67 1.374,0.67 0.547,0 1.016,-0.231 1.404,-0.693 0.391,-0.463 0.585,-1.18 0.585,-2.15 0,-0.925 -0.19,-1.618 -0.571,-2.078 -0.38,-0.46 -0.835,-0.69 -1.363,-0.69 -0.524,0 -0.988,0.245 -1.391,0.735 -0.403,0.489 -0.605,1.201 -0.605,2.135 z"
   id="path77"
   inkscape:connector-curvature="0"
   style="fill:#ffffff" />
		<path
   d="m 560.256,21.662 1.271,0.157 c -0.2,0.743 -0.572,1.319 -1.114,1.729 -0.542,0.41 -1.235,0.615 -2.078,0.615 -1.062,0 -1.903,-0.327 -2.526,-0.98 -0.621,-0.654 -0.933,-1.571 -0.933,-2.752 0,-1.222 0.314,-2.169 0.943,-2.844 0.629,-0.675 1.444,-1.012 2.447,-1.012 0.971,0 1.764,0.33 2.379,0.991 0.615,0.661 0.923,1.591 0.923,2.789 0,0.073 -0.002,0.183 -0.007,0.328 h -5.414 c 0.046,0.798 0.271,1.408 0.677,1.832 0.406,0.424 0.911,0.636 1.518,0.636 0.451,0 0.836,-0.118 1.155,-0.355 0.319,-0.237 0.573,-0.614 0.759,-1.134 z m -4.04,-1.989 h 4.054 c -0.055,-0.61 -0.21,-1.068 -0.465,-1.374 -0.392,-0.474 -0.9,-0.711 -1.524,-0.711 -0.565,0 -1.04,0.189 -1.425,0.567 -0.386,0.378 -0.599,0.884 -0.64,1.518 z"
   id="path79"
   inkscape:connector-curvature="0"
   style="fill:#ffffff" />
		<path
   d="m 563.072,24 v -7.26 h 1.107 v 1.032 c 0.533,-0.798 1.304,-1.196 2.311,-1.196 0.438,0 0.84,0.078 1.206,0.236 0.367,0.156 0.642,0.363 0.824,0.618 0.182,0.255 0.31,0.559 0.383,0.909 0.046,0.228 0.068,0.627 0.068,1.196 V 24 h -1.23 v -4.416 c 0,-0.501 -0.048,-0.876 -0.144,-1.125 -0.096,-0.248 -0.266,-0.446 -0.509,-0.594 -0.244,-0.148 -0.53,-0.223 -0.858,-0.223 -0.524,0 -0.977,0.166 -1.356,0.499 -0.381,0.333 -0.571,0.964 -0.571,1.894 V 24 h -1.231 z"
   id="path81"
   inkscape:connector-curvature="0"
   style="fill:#ffffff" />
		<path
   d="m 575.042,24 v -6.303 h -1.087 V 16.74 h 1.087 v -0.772 c 0,-0.487 0.043,-0.85 0.13,-1.087 0.118,-0.319 0.327,-0.578 0.626,-0.775 0.298,-0.199 0.716,-0.298 1.254,-0.298 0.347,0 0.729,0.041 1.148,0.123 l -0.185,1.073 c -0.255,-0.046 -0.497,-0.068 -0.725,-0.068 -0.374,0 -0.638,0.08 -0.793,0.239 -0.155,0.159 -0.232,0.458 -0.232,0.896 v 0.67 h 1.415 v 0.957 h -1.415 V 24 h -1.223 z"
   id="path83"
   inkscape:connector-curvature="0"
   style="fill:#ffffff" />
		<path
   d="m 578.18,20.37 c 0,-1.345 0.374,-2.34 1.121,-2.987 0.624,-0.538 1.386,-0.807 2.283,-0.807 0.998,0 1.813,0.327 2.447,0.98 0.634,0.654 0.95,1.558 0.95,2.711 0,0.935 -0.14,1.669 -0.421,2.205 -0.279,0.535 -0.688,0.951 -1.223,1.247 -0.536,0.296 -1.12,0.444 -1.754,0.444 -1.017,0 -1.838,-0.326 -2.465,-0.978 -0.625,-0.65 -0.938,-1.589 -0.938,-2.815 z m 1.265,0 c 0,0.93 0.203,1.626 0.608,2.089 0.405,0.462 0.916,0.693 1.531,0.693 0.61,0 1.119,-0.232 1.524,-0.697 0.405,-0.465 0.608,-1.174 0.608,-2.126 0,-0.897 -0.204,-1.578 -0.611,-2.04 -0.408,-0.463 -0.915,-0.694 -1.521,-0.694 -0.615,0 -1.126,0.23 -1.531,0.69 -0.405,0.46 -0.608,1.155 -0.608,2.085 z"
   id="path85"
   inkscape:connector-curvature="0"
   style="fill:#ffffff" />
		<path
   d="m 586.41,24 v -7.26 h 1.107 v 1.101 c 0.282,-0.515 0.544,-0.854 0.782,-1.019 0.24,-0.164 0.503,-0.246 0.79,-0.246 0.415,0 0.836,0.132 1.265,0.396 l -0.424,1.142 c -0.301,-0.178 -0.602,-0.267 -0.902,-0.267 -0.269,0 -0.511,0.081 -0.725,0.242 -0.214,0.162 -0.367,0.387 -0.458,0.674 -0.137,0.438 -0.205,0.916 -0.205,1.436 V 24 h -1.23 z"
   id="path87"
   inkscape:connector-curvature="0"
   style="fill:#ffffff" />
		<path
   d="M 595.133,24 V 13.979 h 3.452 c 0.779,0 1.374,0.048 1.784,0.144 0.574,0.132 1.064,0.371 1.47,0.718 0.528,0.446 0.924,1.018 1.187,1.713 0.262,0.694 0.393,1.488 0.393,2.382 0,0.761 -0.089,1.436 -0.267,2.023 -0.178,0.587 -0.405,1.074 -0.684,1.46 -0.278,0.385 -0.582,0.688 -0.913,0.908 -0.33,0.222 -0.729,0.389 -1.195,0.503 -0.468,0.114 -1.004,0.171 -1.61,0.171 h -3.617 z m 1.326,-1.183 h 2.14 c 0.661,0 1.179,-0.062 1.556,-0.185 0.375,-0.123 0.675,-0.296 0.898,-0.52 0.314,-0.314 0.56,-0.737 0.734,-1.268 0.176,-0.531 0.264,-1.175 0.264,-1.932 0,-1.048 -0.172,-1.854 -0.516,-2.416 -0.345,-0.563 -0.763,-0.94 -1.255,-1.132 -0.355,-0.137 -0.928,-0.205 -1.716,-0.205 h -2.105 v 7.658 z"
   id="path89"
   inkscape:connector-curvature="0"
   style="fill:#ffffff" />
		<path
   d="m 610.056,21.662 1.271,0.157 c -0.2,0.743 -0.572,1.319 -1.114,1.729 -0.542,0.41 -1.235,0.615 -2.078,0.615 -1.062,0 -1.903,-0.327 -2.526,-0.98 -0.621,-0.654 -0.933,-1.571 -0.933,-2.752 0,-1.222 0.314,-2.169 0.943,-2.844 0.629,-0.675 1.444,-1.012 2.447,-1.012 0.971,0 1.764,0.33 2.379,0.991 0.615,0.661 0.923,1.591 0.923,2.789 0,0.073 -0.002,0.183 -0.007,0.328 h -5.414 c 0.046,0.798 0.271,1.408 0.677,1.832 0.406,0.424 0.911,0.636 1.518,0.636 0.451,0 0.836,-0.118 1.155,-0.355 0.319,-0.237 0.572,-0.614 0.759,-1.134 z m -4.04,-1.989 h 4.054 c -0.055,-0.61 -0.21,-1.068 -0.465,-1.374 -0.392,-0.474 -0.9,-0.711 -1.524,-0.711 -0.565,0 -1.04,0.189 -1.425,0.567 -0.386,0.378 -0.599,0.884 -0.64,1.518 z"
   id="path91"
   inkscape:connector-curvature="0"
   style="fill:#ffffff" />
		<path
   d="m 614.007,24 h -1.142 V 13.979 h 1.23 v 3.575 c 0.52,-0.651 1.183,-0.978 1.989,-0.978 0.446,0 0.869,0.09 1.269,0.27 0.398,0.181 0.727,0.434 0.984,0.76 0.257,0.325 0.459,0.719 0.604,1.179 0.145,0.46 0.219,0.952 0.219,1.477 0,1.244 -0.308,2.206 -0.923,2.885 -0.615,0.679 -1.354,1.019 -2.215,1.019 -0.856,0 -1.529,-0.357 -2.017,-1.073 V 24 z m -0.014,-3.685 c 0,0.87 0.118,1.499 0.355,1.887 0.388,0.634 0.911,0.95 1.572,0.95 0.538,0 1.003,-0.233 1.395,-0.701 0.392,-0.467 0.588,-1.163 0.588,-2.088 0,-0.948 -0.188,-1.647 -0.563,-2.099 -0.377,-0.451 -0.831,-0.677 -1.364,-0.677 -0.538,0 -1.003,0.233 -1.395,0.701 -0.391,0.468 -0.588,1.144 -0.588,2.027 z"
   id="path93"
   inkscape:connector-curvature="0"
   style="fill:#ffffff" />
		<path
   d="m 625.416,24 v -1.066 c -0.565,0.82 -1.333,1.23 -2.304,1.23 -0.429,0 -0.828,-0.082 -1.199,-0.246 -0.372,-0.164 -0.647,-0.37 -0.828,-0.619 -0.18,-0.248 -0.306,-0.552 -0.379,-0.912 -0.05,-0.241 -0.075,-0.624 -0.075,-1.148 V 16.74 h 1.23 v 4.026 c 0,0.643 0.025,1.075 0.075,1.299 0.077,0.323 0.241,0.577 0.492,0.763 0.251,0.184 0.561,0.276 0.93,0.276 0.369,0 0.716,-0.095 1.039,-0.284 0.323,-0.188 0.553,-0.446 0.688,-0.771 0.134,-0.326 0.201,-0.799 0.201,-1.419 v -3.89 h 1.23 V 24 h -1.1 z"
   id="path95"
   inkscape:connector-curvature="0"
   style="fill:#ffffff" />
		<path
   d="m 628.219,24.602 1.196,0.178 c 0.05,0.369 0.189,0.638 0.417,0.807 0.306,0.228 0.723,0.342 1.251,0.342 0.569,0 1.01,-0.114 1.319,-0.342 0.309,-0.228 0.52,-0.547 0.629,-0.957 0.063,-0.251 0.094,-0.777 0.089,-1.579 -0.538,0.634 -1.208,0.95 -2.01,0.95 -0.998,0 -1.771,-0.36 -2.317,-1.08 -0.546,-0.72 -0.82,-1.584 -0.82,-2.591 0,-0.692 0.125,-1.332 0.376,-1.917 0.251,-0.586 0.614,-1.038 1.091,-1.357 0.476,-0.319 1.035,-0.479 1.678,-0.479 0.856,0 1.563,0.347 2.119,1.039 V 16.74 h 1.135 v 6.275 c 0,1.13 -0.115,1.932 -0.346,2.402 -0.229,0.473 -0.594,0.845 -1.094,1.118 -0.498,0.273 -1.112,0.41 -1.842,0.41 -0.866,0 -1.565,-0.194 -2.099,-0.585 -0.533,-0.387 -0.791,-0.974 -0.772,-1.758 z m 1.018,-4.362 c 0,0.952 0.189,1.647 0.567,2.085 0.378,0.438 0.853,0.656 1.422,0.656 0.565,0 1.039,-0.218 1.422,-0.653 0.383,-0.435 0.574,-1.117 0.574,-2.047 0,-0.889 -0.197,-1.559 -0.592,-2.01 -0.394,-0.451 -0.869,-0.677 -1.425,-0.677 -0.547,0 -1.012,0.222 -1.395,0.667 -0.381,0.444 -0.573,1.104 -0.573,1.979 z"
   id="path97"
   inkscape:connector-curvature="0"
   style="fill:#ffffff" />
		<path
   d="m 190.035,38.541 -1.375,1.547 c -0.459,0.516 -1.146,1.175 -2.063,1.977 -0.401,-0.344 -0.889,-0.716 -1.461,-1.117 1.088,-0.572 2.033,-1.303 2.836,-2.191 0.802,-0.888 1.346,-1.618 1.633,-2.191 h -0.773 c -0.917,0 -1.891,0.029 -2.922,0.086 v -1.461 c 1.031,0.058 2.005,0.086 2.922,0.086 h 1.203 c 0,-1.088 -0.029,-2.005 -0.086,-2.75 h 1.719 c -0.058,0.745 -0.086,1.662 -0.086,2.75 1.031,0 2.033,-0.028 3.008,-0.086 v 1.461 c -0.975,-0.057 -1.977,-0.086 -3.008,-0.086 v 3.953 c 0,0.459 0.028,0.945 0.086,1.461 h -1.719 c 0.057,-0.286 0.086,-0.773 0.086,-1.461 v -1.978 z m -2.234,10.957 c 0.859,-0.486 1.805,-1.16 2.836,-2.02 0.286,0.401 0.658,0.889 1.117,1.461 -0.631,0.344 -1.318,0.745 -2.063,1.203 -0.745,0.458 -1.776,1.088 -3.094,1.891 -0.287,-0.516 -0.631,-1.003 -1.031,-1.461 0.63,-0.228 1.376,-0.587 2.235,-1.074 z m 14.18,-3.996 c 0.63,0 1.289,-0.028 1.977,-0.086 v 1.461 c -0.688,-0.057 -1.347,-0.086 -1.977,-0.086 h -5.844 v 3.781 c 0,0.859 -0.358,1.403 -1.074,1.633 -0.717,0.229 -1.504,0.372 -2.363,0.43 -0.172,-0.631 -0.401,-1.232 -0.688,-1.805 1.203,0.057 1.919,0.043 2.148,-0.043 0.229,-0.086 0.344,-0.387 0.344,-0.902 v -3.094 h -6.789 c -0.516,0 -1.061,0.058 -1.633,0.172 v -1.547 c 0.572,0.058 1.117,0.086 1.633,0.086 h 14.266 z m -2.235,-2.922 c 0.516,0 1.203,-0.028 2.063,-0.086 v 1.461 c -0.975,-0.057 -1.662,-0.086 -2.063,-0.086 h -9.453 c -0.401,0 -1.031,0.029 -1.891,0.086 v -1.461 c 0.688,0.058 1.317,0.086 1.891,0.086 h 9.453 z m -4.984,-3.523 c -0.287,0.344 -0.659,0.717 -1.117,1.117 -0.631,-0.744 -1.261,-1.375 -1.891,-1.891 0.4,-0.4 0.688,-0.773 0.859,-1.117 0.745,0.631 1.461,1.261 2.149,1.891 z m 3.609,-3.696 c 0,-1.203 -0.029,-2.091 -0.086,-2.664 h 1.719 c -0.058,0.688 -0.086,1.576 -0.086,2.664 h 1.719 c 0.802,0 1.633,-0.028 2.492,-0.086 v 1.461 c -0.803,-0.057 -1.604,-0.086 -2.406,-0.086 h -1.203 c 1.375,1.776 2.864,3.065 4.469,3.867 -0.688,0.459 -1.146,0.889 -1.375,1.289 -0.803,-0.63 -1.547,-1.317 -2.234,-2.063 -0.688,-0.744 -1.175,-1.289 -1.461,-1.633 v 2.063 c 0,0.459 0.028,1.089 0.086,1.891 h -1.719 c 0.057,-0.63 0.086,-1.203 0.086,-1.719 v -2.148 c -0.459,0.631 -0.874,1.175 -1.246,1.633 -0.373,0.459 -1.189,1.203 -2.449,2.234 -0.344,-0.4 -0.803,-0.744 -1.375,-1.031 1.146,-0.688 2.076,-1.432 2.793,-2.234 0.716,-0.802 1.217,-1.518 1.504,-2.148 h -0.859 c -0.459,0 -0.975,0.029 -1.547,0.086 v -1.461 c 0.572,0.058 1.26,0.086 2.063,0.086 h 1.115 z m 2.922,13.321 c 0.802,0.401 1.747,0.975 2.836,1.719 -0.459,0.516 -0.803,1.002 -1.031,1.461 -0.975,-0.803 -2.607,-1.775 -4.898,-2.922 0.4,-0.516 0.716,-0.974 0.945,-1.375 0.63,0.343 1.345,0.716 2.148,1.117 z"
   id="path99"
   inkscape:connector-curvature="0"
   style="fill:#ffffff" />
		<path
   d="m 212.379,40.689 v 8.852 h 4.469 V 36.307 c 0,-1.088 -0.029,-2.177 -0.086,-3.266 h 1.891 c -0.058,1.031 -0.086,2.12 -0.086,3.266 v 2.922 h 3.438 c 0.974,0 2.063,-0.028 3.266,-0.086 v 1.719 c -1.203,-0.057 -2.292,-0.086 -3.266,-0.086 h -3.438 v 8.766 h 4.727 c 1.146,0 2.32,-0.028 3.523,-0.086 v 1.719 c -1.203,-0.058 -2.378,-0.086 -3.523,-0.086 h -12.547 c -1.203,0 -2.406,0.028 -3.609,0.086 v -1.719 c 0.916,0.058 2.063,0.086 3.438,0.086 V 40.69 c 0,-0.974 -0.029,-1.977 -0.086,-3.008 h 1.977 c -0.06,1.031 -0.088,2.034 -0.088,3.007 z"
   id="path101"
   inkscape:connector-curvature="0"
   style="fill:#ffffff" />
		<path
   d="m 234.981,45.932 c 0.744,-0.114 1.547,-0.229 2.406,-0.344 v 1.461 c -0.516,0.058 -1.318,0.172 -2.406,0.344 0,2.292 0.028,3.953 0.086,4.984 h -1.719 c 0.057,-1.776 0.086,-3.322 0.086,-4.641 -2.292,0.344 -3.753,0.602 -4.383,0.773 -0.115,-0.63 -0.229,-1.231 -0.344,-1.805 0.802,-0.057 2.377,-0.2 4.727,-0.43 v -2.922 c -1.834,0 -3.151,0.115 -3.953,0.344 l -0.602,-1.719 c 0.516,-0.4 0.988,-1.06 1.418,-1.977 0.43,-0.916 0.787,-1.861 1.074,-2.836 -0.573,0 -1.375,0.029 -2.406,0.086 v -1.547 c 0.916,0.058 1.833,0.086 2.75,0.086 0.4,-1.203 0.658,-2.263 0.773,-3.18 0.974,0.287 1.633,0.487 1.977,0.602 -0.344,0.573 -0.745,1.433 -1.203,2.578 h 3.695 v 1.461 c -0.917,-0.057 -1.69,-0.086 -2.32,-0.086 h -1.719 c -0.287,0.859 -0.945,2.464 -1.977,4.813 h 2.492 c 0,-1.26 -0.029,-2.291 -0.086,-3.094 h 1.719 c -0.058,0.688 -0.086,1.719 -0.086,3.094 0.744,0 1.461,-0.028 2.148,-0.086 v 1.547 c -0.631,-0.057 -1.347,-0.086 -2.148,-0.086 v 2.58 z m 6.789,4.339 c -1.261,-0.83 -2.378,-1.446 -3.352,-1.848 0.344,-0.4 0.658,-0.83 0.945,-1.289 0.63,0.344 1.547,0.859 2.75,1.547 1.146,-1.375 2.177,-2.635 3.094,-3.781 h -6.102 l 1.031,-3.609 h -0.43 c -0.688,0 -1.461,0.029 -2.32,0.086 V 39.83 c 0.744,0.058 1.461,0.086 2.148,0.086 h 0.945 l 0.602,-2.664 h -0.773 c -1.031,0 -1.805,0.029 -2.32,0.086 v -1.547 c 0.859,0.115 1.547,0.172 2.063,0.172 h 1.203 c 0.229,-1.317 0.372,-2.435 0.43,-3.352 l 2.063,0.344 c -0.287,0.459 -0.473,0.889 -0.559,1.289 -0.086,0.401 -0.215,0.975 -0.387,1.719 h 3.094 c 0.744,0 1.461,-0.028 2.148,-0.086 v 1.461 c -0.975,-0.057 -1.776,-0.086 -2.406,-0.086 h -3.008 l -0.602,2.664 h 3.609 c 0.916,0 1.947,-0.028 3.094,-0.086 v 1.547 c -1.089,-0.057 -2.178,-0.086 -3.266,-0.086 h -3.781 l -0.602,2.406 h 6.531 v 1.375 c -0.401,0.229 -0.932,0.688 -1.59,1.375 -0.659,0.688 -1.504,1.719 -2.535,3.094 0.974,0.631 1.861,1.231 2.664,1.805 l -1.031,1.375 c -0.973,-0.803 -2.091,-1.619 -3.35,-2.45 z"
   id="path103"
   inkscape:connector-curvature="0"
   style="fill:#ffffff" />
		<path
   d="m 262.137,49.928 c 0.859,-0.658 1.661,-1.504 2.406,-2.535 -0.401,-0.974 -0.76,-2.191 -1.074,-3.652 -0.315,-1.461 -0.53,-3.137 -0.645,-5.027 h -9.023 c -0.975,0 -1.948,0.029 -2.922,0.086 v -1.461 c 0.974,0.058 2.635,0.086 4.984,0.086 v -1.547 c -1.834,0 -3.094,0.029 -3.781,0.086 v -1.461 c 0.688,0.058 1.947,0.086 3.781,0.086 0,-0.802 -0.029,-1.518 -0.086,-2.148 h 1.805 c -0.058,0.344 -0.086,1.061 -0.086,2.148 h 1.375 c 0.916,0 1.689,-0.028 2.32,-0.086 v 1.461 c -0.688,-0.057 -1.461,-0.086 -2.32,-0.086 h -1.375 v 1.547 h 5.242 c -0.058,-1.775 -0.144,-3.466 -0.258,-5.07 0.744,0.115 1.346,0.172 1.805,0.172 -0.115,0.975 -0.144,2.607 -0.086,4.898 h 3.781 c 1.031,0 2.033,-0.028 3.008,-0.086 V 38.8 c -1.031,-0.057 -2.034,-0.086 -3.008,-0.086 h -3.695 c 0.172,1.776 0.357,3.266 0.559,4.469 0.2,1.203 0.443,2.063 0.73,2.578 0.286,-0.63 0.615,-1.432 0.988,-2.406 0.372,-0.974 0.645,-2.063 0.816,-3.266 0.458,0.287 1.088,0.545 1.891,0.773 -0.459,0.917 -0.874,1.891 -1.246,2.922 -0.373,1.031 -0.96,2.264 -1.762,3.695 1.375,2.578 2.22,3.494 2.535,2.75 0.314,-0.744 0.529,-1.375 0.645,-1.891 0.572,0.287 1.117,0.516 1.633,0.688 -0.859,2.291 -1.647,3.48 -2.363,3.566 -0.717,0.086 -1.848,-1.132 -3.395,-3.652 -1.203,1.433 -2.55,2.606 -4.039,3.523 -0.344,-0.401 -0.803,-0.773 -1.375,-1.117 0.63,-0.287 1.375,-0.76 2.235,-1.418 z m -4.039,2.535 h -1.719 c 0,-1.203 0.028,-2.177 0.086,-2.922 -2.35,0.344 -3.925,0.631 -4.727,0.859 l -0.602,-1.805 c 0.63,0 2.406,-0.143 5.328,-0.43 v -2.063 h -1.805 c -0.745,0 -1.49,0.086 -2.234,0.258 l -0.602,-1.633 c 0.229,-0.229 0.443,-0.43 0.645,-0.602 0.2,-0.172 0.673,-0.773 1.418,-1.805 -0.631,0 -1.404,0.029 -2.32,0.086 v -1.547 c 1.031,0.058 2.063,0.086 3.094,0.086 0.458,-0.802 0.83,-1.518 1.117,-2.148 0.572,0.229 1.203,0.459 1.891,0.688 -0.459,0.516 -0.859,1.003 -1.203,1.461 h 1.891 c 1.146,-0.057 2.205,-0.086 3.18,-0.086 v 1.547 c -0.975,-0.057 -2.034,-0.086 -3.18,-0.086 h -2.75 c -0.229,0.344 -0.859,1.175 -1.891,2.492 h 2.75 c 0,-0.458 -0.029,-1.06 -0.086,-1.805 h 1.719 c -0.058,0.745 -0.086,1.347 -0.086,1.805 0.974,0 2.063,-0.028 3.266,-0.086 v 1.461 c -1.203,-0.057 -2.292,-0.086 -3.266,-0.086 v 1.805 c 1.833,-0.229 3.008,-0.4 3.523,-0.516 -0.115,0.573 -0.201,1.061 -0.258,1.461 -0.401,0 -1.49,0.144 -3.266,0.43 10e-4,0.918 0.029,1.978 0.087,3.181 z m 11.258,-17.016 c -0.516,0.287 -0.975,0.573 -1.375,0.859 -0.287,-0.4 -0.975,-1.231 -2.063,-2.492 0.4,-0.286 0.83,-0.572 1.289,-0.859 1.146,1.203 1.862,2.034 2.149,2.492 z"
   id="path105"
   inkscape:connector-curvature="0"
   style="fill:#ffffff" />
		<path
   d="m 364.059,35.104 c 0,-0.802 -0.058,-1.604 -0.172,-2.406 h 1.891 c -0.115,0.688 -0.172,1.49 -0.172,2.406 v 2.234 c 0.63,0 1.403,-0.028 2.32,-0.086 v 1.547 c -0.917,-0.057 -1.69,-0.086 -2.32,-0.086 v 3.953 c 0.572,-0.229 1.203,-0.544 1.891,-0.945 0.057,0.459 0.143,1.003 0.258,1.633 -0.516,0.172 -1.232,0.459 -2.148,0.859 v 6.359 c -0.058,0.516 -0.287,0.902 -0.688,1.16 -0.401,0.258 -1.318,0.501 -2.75,0.73 0.057,-0.516 -0.115,-1.203 -0.516,-2.063 0.974,0.114 1.618,0.129 1.934,0.043 0.314,-0.086 0.473,-0.329 0.473,-0.73 v -4.984 c -0.401,0.172 -1.203,0.573 -2.406,1.203 -0.172,-0.458 -0.487,-1.06 -0.945,-1.805 0.63,-0.114 1.747,-0.43 3.352,-0.945 v -4.469 c -1.146,0 -2.063,0.029 -2.75,0.086 v -1.547 c 0.63,0.058 1.547,0.086 2.75,0.086 v -2.233 z m 8.379,-0.731 c -0.258,0.545 -0.588,1.189 -0.988,1.934 h 5.93 c 1.26,0 2.377,-0.057 3.352,-0.172 v 1.719 c -1.031,-0.057 -2.148,-0.086 -3.352,-0.086 h -0.945 v 2.75 c 1.547,0 2.75,-0.028 3.609,-0.086 v 1.547 c -0.859,-0.057 -2.063,-0.086 -3.609,-0.086 V 44.9 c 1.604,0 2.807,-0.028 3.609,-0.086 v 1.547 c -0.803,-0.057 -2.006,-0.086 -3.609,-0.086 v 3.008 h 1.461 c 1.203,0 2.32,-0.028 3.352,-0.086 v 1.547 c -1.031,-0.058 -2.148,-0.086 -3.352,-0.086 h -6.531 v 1.805 h -1.633 c 0.057,-0.975 0.086,-2.406 0.086,-4.297 v -8.508 c -0.344,0.573 -0.803,1.261 -1.375,2.063 -0.287,-0.458 -0.717,-0.859 -1.289,-1.203 1.088,-1.432 1.947,-2.807 2.578,-4.125 0.63,-1.317 1.088,-2.635 1.375,-3.953 0.63,0.344 1.289,0.573 1.977,0.688 -0.174,0.286 -0.389,0.701 -0.646,1.245 z m 2.363,6.145 v -2.75 h -3.438 v 2.75 h 3.438 z m 0,4.382 v -3.008 h -3.438 V 44.9 h 3.438 z m 0,4.383 v -3.008 h -3.438 v 3.008 h 3.438 z m 2.578,-14.523 c -0.287,0.115 -0.803,0.401 -1.547,0.859 -0.229,-0.516 -0.773,-1.317 -1.633,-2.406 0.744,-0.344 1.289,-0.602 1.633,-0.773 0.286,0.458 0.802,1.232 1.547,2.32 z"
   id="path107"
   inkscape:connector-curvature="0"
   style="fill:#ffffff" />
		<path
   d="m 387.692,40.174 c -0.058,1.089 -0.086,2.206 -0.086,3.352 v 4.813 c 1.891,1.203 4.383,1.834 7.477,1.891 3.094,0.058 5.786,-0.057 8.078,-0.344 -0.573,0.744 -0.917,1.432 -1.031,2.063 -2.12,0 -3.996,-0.015 -5.629,-0.043 -1.633,-0.029 -2.937,-0.115 -3.91,-0.258 -0.975,-0.144 -1.848,-0.358 -2.621,-0.645 -0.773,-0.287 -1.447,-0.602 -2.02,-0.945 -0.573,-0.344 -1.117,-0.271 -1.633,0.215 -0.516,0.486 -1.061,1.16 -1.633,2.02 -0.459,-0.459 -0.975,-0.889 -1.547,-1.289 1.317,-1.146 2.291,-1.947 2.922,-2.406 v -6.961 c -1.031,0 -1.948,0.029 -2.75,0.086 V 40.09 c 0.859,0.058 1.775,0.086 2.75,0.086 h 1.633 z m 0.601,-3.18 c -0.631,0.229 -1.175,0.459 -1.633,0.688 -0.516,-1.432 -1.117,-2.807 -1.805,-4.125 0.572,-0.172 1.088,-0.4 1.547,-0.688 0.745,1.49 1.375,2.865 1.891,4.125 z m 12.805,0.688 c 0,0.917 0.028,2.234 0.086,3.953 h -1.719 V 40.69 h -6.531 c -0.058,1.547 -0.272,2.865 -0.645,3.953 -0.373,1.089 -1.046,2.464 -2.02,4.125 -0.459,-0.344 -1.031,-0.658 -1.719,-0.945 0.916,-1.031 1.561,-2.033 1.934,-3.008 0.372,-0.974 0.615,-1.891 0.73,-2.75 0.114,-0.859 0.172,-1.977 0.172,-3.352 0,-1.375 -0.029,-3.008 -0.086,-4.898 h 9.883 c -0.057,1.662 -0.085,2.951 -0.085,3.867 z m -1.633,1.461 v -3.781 h -6.531 v 3.781 h 6.531 z m 2.062,8.078 c -0.459,0.344 -0.975,0.831 -1.547,1.461 -1.318,-1.661 -2.951,-3.466 -4.898,-5.414 0.4,-0.344 0.802,-0.773 1.203,-1.289 0.802,0.63 2.549,2.377 5.242,5.242 z"
   id="path109"
   inkscape:connector-curvature="0"
   style="fill:#ffffff" />
		<path
   d="m 415.277,35.404 c -0.172,0.659 -0.401,1.562 -0.688,2.707 h 6.875 c 0.572,0 1.432,-0.028 2.578,-0.086 v 1.633 c -1.146,-0.057 -2.006,-0.086 -2.578,-0.086 h -7.219 c -0.344,0.859 -0.717,1.719 -1.117,2.578 h 9.109 c -1.089,2.636 -2.607,4.842 -4.555,6.617 1.547,1.089 3.81,1.805 6.789,2.148 -0.401,0.458 -0.745,1.031 -1.031,1.719 -1.146,-0.229 -2.32,-0.559 -3.523,-0.988 -1.203,-0.429 -2.378,-1.046 -3.523,-1.848 -0.917,0.573 -2.034,1.131 -3.352,1.676 -1.318,0.544 -2.664,0.988 -4.039,1.332 -0.115,-0.573 -0.401,-1.117 -0.859,-1.633 1.26,-0.172 2.521,-0.473 3.781,-0.902 1.26,-0.43 2.377,-0.959 3.352,-1.59 -0.975,-0.974 -2.063,-2.377 -3.266,-4.211 -0.631,1.031 -1.433,2.034 -2.406,3.008 -0.975,0.975 -2.034,1.862 -3.18,2.664 -0.229,-0.4 -0.688,-0.83 -1.375,-1.289 0.859,-0.458 1.704,-1.06 2.535,-1.805 0.83,-0.744 1.704,-1.732 2.621,-2.965 0.916,-1.231 1.689,-2.735 2.32,-4.512 -1.49,0 -2.636,0.029 -3.438,0.086 -0.803,0.058 -1.404,0.172 -1.805,0.344 -0.172,-0.516 -0.401,-1.06 -0.688,-1.633 0.572,-0.114 0.988,-0.544 1.246,-1.289 0.258,-0.744 0.529,-1.891 0.816,-3.438 0.458,0.229 1.088,0.459 1.891,0.688 -0.287,0.573 -0.545,1.16 -0.773,1.762 -0.229,0.602 -0.487,1.275 -0.773,2.02 h 3.953 c 0.458,-1.833 0.802,-3.58 1.031,-5.242 0.63,0.344 1.289,0.545 1.977,0.602 -0.285,0.631 -0.514,1.275 -0.686,1.933 z m 1.29,12.418 c 1.26,-1.031 2.377,-2.463 3.352,-4.297 h -6.703 c 0.801,1.433 1.918,2.866 3.351,4.297 z m 5.5,-11.515 c -0.401,0.229 -0.889,0.602 -1.461,1.117 -0.917,-1.317 -1.805,-2.435 -2.664,-3.352 0.4,-0.286 0.802,-0.658 1.203,-1.117 0.973,1.089 1.947,2.206 2.922,3.352 z"
   id="path111"
   inkscape:connector-curvature="0"
   style="fill:#ffffff" />
		<path
   d="m 434.184,35.877 c 0.63,-1.26 1.088,-2.492 1.375,-3.695 0.802,0.287 1.518,0.545 2.148,0.773 -0.287,0.229 -0.803,1.203 -1.547,2.922 h 6.359 c 1.719,0 3.122,-0.028 4.211,-0.086 v 1.547 h -11.344 c -0.917,1.604 -1.776,2.894 -2.578,3.867 h 4.469 c 0,-1.26 -0.029,-2.291 -0.086,-3.094 h 1.805 c -0.058,0.803 -0.086,1.834 -0.086,3.094 h 6.016 c -0.058,1.031 -0.086,2.063 -0.086,3.094 v 3.523 c 0,1.089 -0.301,1.776 -0.902,2.063 -0.602,0.287 -1.476,0.487 -2.621,0.602 -0.115,-0.802 -0.373,-1.461 -0.773,-1.977 1.317,0 2.105,-0.086 2.363,-0.258 0.258,-0.172 0.357,-0.63 0.301,-1.375 v -4.211 h -4.297 v 5.844 c 0,1.203 0.028,2.521 0.086,3.953 h -1.805 c 0.057,-1.433 0.086,-2.75 0.086,-3.953 v -5.844 h -4.039 V 50.4 h -1.719 c 0.057,-1.203 0.086,-2.377 0.086,-3.523 v -4.125 c -0.745,0.859 -1.862,1.948 -3.352,3.266 -0.401,-0.458 -0.917,-0.888 -1.547,-1.289 1.26,-0.859 2.478,-1.904 3.652,-3.137 1.174,-1.231 2.191,-2.649 3.051,-4.254 h -2.063 c -1.433,0 -2.75,0.029 -3.953,0.086 v -1.633 c 1.203,0.058 2.521,0.086 3.953,0.086 h 2.837 z"
   id="path113"
   inkscape:connector-curvature="0"
   style="fill:#ffffff" />
		<path
   d="m 545.129,35.447 c -0.115,0.745 -0.258,1.504 -0.43,2.277 -0.172,0.773 -0.344,1.533 -0.516,2.277 -0.172,0.745 -0.373,1.433 -0.602,2.063 l -0.43,1.375 c 0.344,0.459 0.744,1.074 1.203,1.848 0.458,0.773 0.916,1.562 1.375,2.363 -0.516,0.287 -1.003,0.602 -1.461,0.945 -0.344,-0.63 -0.659,-1.188 -0.945,-1.676 -0.287,-0.486 -0.631,-1.103 -1.031,-1.848 -0.401,0.975 -0.889,1.963 -1.461,2.965 -0.573,1.003 -1.203,1.991 -1.891,2.965 -0.573,-0.459 -1.117,-0.83 -1.633,-1.117 0.802,-0.859 1.475,-1.719 2.02,-2.578 0.544,-0.859 1.16,-2.033 1.848,-3.523 -0.401,-0.688 -0.816,-1.317 -1.246,-1.891 -0.43,-0.572 -0.988,-1.26 -1.676,-2.063 0.4,-0.344 0.859,-0.688 1.375,-1.031 0.286,0.401 0.645,0.874 1.074,1.418 0.43,0.545 0.873,1.16 1.332,1.848 0.229,-0.744 0.458,-1.518 0.688,-2.32 0.229,-0.802 0.43,-1.775 0.602,-2.922 h -2.664 c -0.975,0 -1.948,0.029 -2.922,0.086 v -1.547 c 1.031,0.058 1.977,0.086 2.836,0.086 h 4.555 z m 6.102,7.391 c 0,0.745 0.229,1.604 0.688,2.578 0.458,0.975 1.002,1.805 1.633,2.492 0.63,0.688 1.289,1.232 1.977,1.633 0.688,0.401 1.289,0.659 1.805,0.773 -0.459,0.516 -0.859,1.117 -1.203,1.805 -2.234,-1.433 -3.667,-2.664 -4.297,-3.695 -0.631,-1.031 -1.089,-1.977 -1.375,-2.836 -0.573,1.547 -1.261,2.822 -2.063,3.824 -0.803,1.002 -1.948,2.02 -3.438,3.051 -0.459,-0.516 -0.975,-1.003 -1.547,-1.461 1.26,-0.516 2.277,-1.16 3.051,-1.934 0.774,-0.774 1.375,-1.575 1.805,-2.406 0.43,-0.83 0.716,-1.646 0.859,-2.449 0.143,-0.802 0.229,-1.475 0.258,-2.02 0.028,-0.544 0.043,-1.332 0.043,-2.363 0.572,0.058 1.26,0.144 2.063,0.258 -0.173,1.089 -0.259,2.006 -0.259,2.75 z m -2.02,-8.164 c -0.144,0.573 -0.301,1.146 -0.473,1.719 h 7.648 c -0.172,0.459 -0.387,1.018 -0.645,1.676 -0.258,0.659 -0.53,1.59 -0.816,2.793 -0.631,-0.172 -1.203,-0.286 -1.719,-0.344 0.172,-0.572 0.329,-1.045 0.473,-1.418 0.143,-0.372 0.271,-0.816 0.387,-1.332 h -5.758 c -0.229,0.688 -0.459,1.332 -0.688,1.934 -0.229,0.602 -0.487,1.304 -0.773,2.105 -0.631,-0.286 -1.175,-0.486 -1.633,-0.602 0.344,-0.63 0.658,-1.289 0.945,-1.977 0.286,-0.688 0.516,-1.403 0.688,-2.148 0.172,-0.744 0.344,-1.518 0.516,-2.32 0.172,-0.802 0.314,-1.547 0.43,-2.234 0.63,0.172 1.346,0.344 2.148,0.516 -0.343,0.515 -0.587,1.06 -0.73,1.632 z"
   id="path115"
   inkscape:connector-curvature="0"
   style="fill:#ffffff" />
		<path
   d="m 572.543,52.248 c -1.662,-0.086 -3.051,-0.201 -4.168,-0.344 -1.117,-0.144 -2.135,-0.387 -3.051,-0.73 -0.917,-0.344 -1.633,-0.674 -2.148,-0.988 -0.515,-0.314 -1.018,-0.172 -1.504,0.43 -0.487,0.602 -0.988,1.246 -1.504,1.934 -0.401,-0.401 -0.859,-0.803 -1.375,-1.203 1.203,-1.146 2.091,-1.947 2.664,-2.406 v -7.734 c -0.688,0 -1.49,0.029 -2.406,0.086 V 39.66 c 0.974,0.058 1.805,0.086 2.492,0.086 h 1.719 c -0.058,1.375 -0.086,2.664 -0.086,3.867 v 4.984 c 1.661,1.146 4.254,1.776 7.777,1.891 3.523,0.115 6.287,0.057 8.293,-0.172 -0.459,0.802 -0.745,1.489 -0.859,2.063 -2.234,-0.002 -4.183,-0.045 -5.844,-0.131 z M 559.91,33.299 c 0.516,-0.229 1.088,-0.43 1.719,-0.602 0.744,2.063 1.203,3.467 1.375,4.211 -0.573,0.115 -1.146,0.287 -1.719,0.516 -0.172,-0.744 -0.631,-2.119 -1.375,-4.125 z m 5.844,14.265 -0.859,-1.461 c 0.458,-0.4 0.658,-1.031 0.602,-1.891 v -7.219 c 0,-0.974 -0.029,-1.977 -0.086,-3.008 1.891,-0.286 3.294,-0.802 4.211,-1.547 0.286,0.688 0.688,1.261 1.203,1.719 -0.688,0.115 -1.92,0.401 -3.695,0.859 v 10.141 c 0.4,-0.172 1.346,-0.688 2.836,-1.547 0,0.516 0.057,1.117 0.172,1.805 -0.632,0.173 -2.093,0.89 -4.384,2.149 z m 9.969,-2.835 c 0.229,-0.229 0.344,-0.602 0.344,-1.117 v -8.336 h -3.094 v 10.828 c 0,0.917 0.057,1.977 0.172,3.18 h -1.891 c 0.057,-1.203 0.086,-2.291 0.086,-3.266 v -8.594 c 0,-1.146 -0.029,-2.349 -0.086,-3.609 h 6.531 c -0.058,1.203 -0.086,2.378 -0.086,3.523 v 6.875 c 0,1.089 -0.258,1.762 -0.773,2.02 -0.515,0.258 -1.203,0.444 -2.063,0.559 -0.172,-0.63 -0.401,-1.203 -0.688,-1.719 0.803,-10e-4 1.318,-0.115 1.548,-0.344 z"
   id="path117"
   inkscape:connector-curvature="0"
   style="fill:#ffffff" />
		<path
   d="m 584.317,34.674 c 0,-0.63 -0.029,-1.289 -0.086,-1.977 h 1.805 c -0.115,0.688 -0.172,1.347 -0.172,1.977 v 2.32 h 0.859 c 0.344,0 0.945,-0.028 1.805,-0.086 v 1.633 c -0.975,-0.057 -1.662,-0.086 -2.063,-0.086 h -0.602 v 3.953 c 0.458,-0.172 0.859,-0.4 1.203,-0.688 0.172,0.287 0.4,0.674 0.688,1.16 0.286,0.487 0.572,0.988 0.859,1.504 -0.401,0.172 -0.889,0.459 -1.461,0.859 -0.172,-0.286 -0.358,-0.673 -0.559,-1.16 -0.201,-0.486 -0.444,-0.873 -0.73,-1.16 v 6.445 c 0,1.088 0.028,2.148 0.086,3.18 h -1.719 c 0.057,-0.917 0.086,-1.977 0.086,-3.18 v -6.875 c -0.229,0.573 -0.573,1.332 -1.031,2.277 -0.459,0.945 -0.889,1.733 -1.289,2.363 -0.401,-0.572 -0.859,-1.002 -1.375,-1.289 0.516,-0.572 0.945,-1.188 1.289,-1.848 0.344,-0.658 0.673,-1.317 0.988,-1.977 0.314,-0.658 0.572,-1.289 0.773,-1.891 0.2,-0.602 0.357,-1.16 0.473,-1.676 h -0.859 c -0.287,0 -0.889,0.029 -1.805,0.086 v -1.633 c 0.859,0.058 1.461,0.086 1.805,0.086 h 1.031 v -2.317 z m 12.589,4.64 c -0.545,-0.458 -1.061,-1.017 -1.547,-1.676 -0.487,-0.658 -1.046,-1.504 -1.676,-2.535 -0.459,0.975 -0.889,1.791 -1.289,2.449 -0.401,0.659 -0.831,1.275 -1.289,1.848 h 5.586 v 1.547 c -0.401,-0.057 -0.803,-0.086 -1.203,-0.086 h -2.578 c -0.688,0 -1.375,0.029 -2.063,0.086 V 39.83 l -0.945,0.945 c -0.401,0.459 -0.773,0.859 -1.117,1.203 -0.344,-0.516 -0.859,-0.945 -1.547,-1.289 0.859,-0.572 1.604,-1.217 2.234,-1.934 0.63,-0.716 1.16,-1.403 1.59,-2.063 0.43,-0.658 0.802,-1.346 1.117,-2.063 0.314,-0.716 0.529,-1.389 0.645,-2.02 0.744,0.172 1.432,0.344 2.063,0.516 -0.229,0.287 -0.373,0.516 -0.43,0.688 1.088,1.948 2.234,3.309 3.438,4.082 1.204,0.773 2.291,1.332 3.266,1.676 -0.573,0.516 -0.917,1.117 -1.031,1.805 -0.573,-0.286 -1.117,-0.587 -1.633,-0.902 -0.516,-0.314 -1.047,-0.701 -1.591,-1.16 z m 1.075,7.004 c -0.401,1.061 -0.889,2.221 -1.461,3.48 h 1.461 c 0.859,0 1.719,-0.028 2.578,-0.086 v 1.547 c -0.688,-0.058 -1.547,-0.086 -2.578,-0.086 h -7.219 c -1.604,0 -2.664,0.028 -3.18,0.086 v -1.547 c 0.572,0.058 1.661,0.086 3.266,0.086 h 4.039 c 0.4,-0.802 0.787,-1.732 1.16,-2.793 0.372,-1.06 0.658,-1.919 0.859,-2.578 0.2,-0.658 0.387,-1.446 0.559,-2.363 0.744,0.287 1.432,0.516 2.063,0.688 -0.631,1.318 -1.147,2.507 -1.547,3.566 z m -6.575,-0.945 c 0.372,0.889 0.701,1.733 0.988,2.535 -0.459,0.172 -1.031,0.43 -1.719,0.773 -0.287,-1.031 -0.545,-1.833 -0.773,-2.406 -0.229,-0.572 -0.631,-1.432 -1.203,-2.578 0.688,-0.344 1.231,-0.63 1.633,-0.859 0.344,0.803 0.701,1.647 1.074,2.535 z m 3.309,-0.644 c 0.344,0.975 0.602,1.69 0.773,2.148 -0.631,0.115 -1.203,0.315 -1.719,0.602 -0.229,-0.916 -0.473,-1.747 -0.73,-2.492 -0.258,-0.744 -0.588,-1.489 -0.988,-2.234 0.688,-0.286 1.26,-0.516 1.719,-0.688 0.286,0.802 0.601,1.69 0.945,2.664 z"
   id="path119"
   inkscape:connector-curvature="0"
   style="fill:#ffffff" />
		<path
   d="m 612.16,35.361 c 0,-0.916 -0.029,-1.805 -0.086,-2.664 h 1.719 c -0.058,0.803 -0.086,1.69 -0.086,2.664 h 5.328 c 0.802,0 1.775,-0.028 2.922,-0.086 v 1.633 c -1.146,-0.057 -2.12,-0.086 -2.922,-0.086 h -3.094 c 0.63,0.917 1.575,1.719 2.836,2.406 1.26,0.688 2.692,1.232 4.297,1.633 -0.573,0.459 -0.975,1.031 -1.203,1.719 -1.776,-0.63 -3.28,-1.403 -4.512,-2.32 -1.232,-0.916 -2.277,-2.063 -3.137,-3.438 h -0.516 v 4.727 h 5.414 c -0.058,1.031 -0.086,2.178 -0.086,3.438 0,1.203 0.028,2.406 0.086,3.609 h -12.203 c 0.057,-1.088 0.086,-2.263 0.086,-3.523 0,-1.317 -0.029,-2.492 -0.086,-3.523 -0.745,0.459 -1.633,0.945 -2.664,1.461 -0.344,-0.63 -0.745,-1.146 -1.203,-1.547 1.26,-0.286 2.521,-0.859 3.781,-1.719 1.26,-0.859 2.263,-1.833 3.008,-2.922 h -2.492 c -1.031,0 -2.12,0.029 -3.266,0.086 v -1.633 c 1.146,0.058 2.234,0.086 3.266,0.086 h 4.813 z m 7.391,15.039 c 0.974,0 1.919,-0.028 2.836,-0.086 v 1.547 c -2.178,-0.058 -3.695,-0.086 -4.555,-0.086 h -10.914 c -1.031,0 -2.063,0.028 -3.094,0.086 v -1.547 c 1.088,0.058 2.119,0.086 3.094,0.086 h 12.633 z m -7.391,-8.851 v -4.727 h -0.43 c -0.631,0.975 -1.318,1.834 -2.063,2.578 -0.745,0.745 -1.633,1.461 -2.664,2.148 h 5.157 z m 5.328,2.836 v -1.461 h -8.938 v 1.461 h 8.938 z m 0,2.836 v -1.547 h -8.938 v 1.547 h 8.938 z"
   id="path121"
   inkscape:connector-curvature="0"
   style="fill:#ffffff" />
	</g>
	<path
   id="rect1338"
   inkscape:connector-curvature="0"
   d="m 326.591,31.789 h 12.762 v 4.515 h -12.762 l 0,-4.515 z m -0.773,4.291 V 17.671 h 4.515 V 36.08 l -4.515,0 z m 6.767,-1.75 c 0,2.503 -2.029,4.533 -4.533,4.533 -2.503,0 -4.533,-2.029 -4.533,-4.533 0,-2.503 2.029,-4.533 4.533,-4.533 2.504,0 4.533,2.029 4.533,4.533 z"
   style="fill:#ffffff" />
</g>
<g
   id="_2"
   transform="matrix(0.5,0,0,0.5,-74.979561,0)">
	<g
   id="g125">
		<path
   d="m -85.892,39.56 h -3.823 v -2.285 c -0.635,0.889 -1.384,1.551 -2.249,1.984 -0.864,0.435 -1.736,0.652 -2.615,0.652 -1.787,0 -3.318,-0.72 -4.592,-2.16 -1.274,-1.44 -1.912,-3.45 -1.912,-6.028 0,-2.637 0.62,-4.641 1.86,-6.013 1.24,-1.372 2.808,-2.058 4.702,-2.058 1.738,0 3.242,0.723 4.512,2.168 v -7.734 h 4.116 V 39.56 z m -10.987,-8.116 c 0,1.66 0.229,2.861 0.688,3.604 0.664,1.074 1.592,1.611 2.783,1.611 0.947,0 1.753,-0.402 2.417,-1.208 0.664,-0.806 0.996,-2.01 0.996,-3.611 0,-1.787 -0.322,-3.074 -0.967,-3.86 -0.645,-0.786 -1.47,-1.179 -2.476,-1.179 -0.977,0 -1.794,0.388 -2.454,1.165 -0.66,0.777 -0.987,1.935 -0.987,3.478 z"
   id="path127"
   inkscape:connector-curvature="0"
   style="fill:#ffffff" />
	</g>
	<g
   id="g129">
		<path
   d="m -31.308,21.656 c 0,-2.813 -0.048,-4.827 -0.141,-6.047 h 3.094 c -0.095,1.125 -0.141,3.142 -0.141,6.047 h 6.188 c 1.78,0 3.467,-0.046 5.063,-0.141 v 2.531 c -1.595,-0.092 -3.283,-0.141 -5.063,-0.141 h -6.188 v 5.625 h 8.297 c 2.061,0 3.983,-0.046 5.766,-0.141 v 2.531 c -1.782,-0.092 -3.656,-0.141 -5.625,-0.141 h -6.75 c 1.688,2.531 3.538,4.711 5.555,6.539 2.015,1.828 4.852,3.259 8.508,4.289 -1.22,0.563 -2.063,1.547 -2.531,2.953 -2.531,-0.936 -4.9,-2.342 -7.102,-4.219 -2.204,-1.874 -4.243,-4.5 -6.117,-7.875 v 9.844 c 0,1.779 0.046,3.421 0.141,4.922 h -3.234 c 0.187,-1.501 0.281,-3.143 0.281,-4.922 V 33.047 c -2.25,3.656 -4.454,6.423 -6.609,8.297 -2.158,1.877 -4.078,3.375 -5.766,4.5 -0.376,-0.844 -1.22,-1.688 -2.531,-2.531 1.593,-0.563 3.632,-1.874 6.117,-3.938 2.483,-2.061 4.663,-4.592 6.539,-7.594 h -7.031 c -2.063,0 -3.656,0.049 -4.781,0.141 v -2.531 c 1.406,0.095 3.094,0.141 5.063,0.141 h 9 v -5.625 h -5.906 c -2.25,0 -4.078,0.048 -5.484,0.141 v -2.531 c 1.406,0.095 3.14,0.141 5.203,0.141 h 6.185 z"
   id="path131"
   inkscape:connector-curvature="0"
   style="fill:#f37526" />
		<path
   d="m 12.145,27.422 c 1.78,0 3.608,-0.046 5.484,-0.141 v 2.672 C 15.941,29.861 13.924,29.812 11.582,29.812 H 8.488 v 5.625 h 5.906 c 1.03,0 2.483,-0.046 4.359,-0.141 v 2.672 c -1.876,-0.092 -3.375,-0.141 -4.5,-0.141 H 8.488 v 6.609 c 3.938,0.471 8.624,0.422 14.063,-0.141 -0.751,1.217 -1.22,2.342 -1.406,3.375 -3.751,0 -6.845,-0.049 -9.281,-0.141 -2.439,-0.095 -4.5,-0.376 -6.188,-0.844 -1.688,-0.471 -3.188,-1.174 -4.5,-2.109 -1.314,-0.936 -2.531,-2.061 -3.656,-3.375 -1.501,2.721 -3.234,5.063 -5.203,7.031 -0.844,-0.844 -1.782,-1.455 -2.813,-1.828 2.624,-2.061 4.546,-4.5 5.766,-7.313 1.217,-2.813 1.874,-4.968 1.969,-6.469 0.936,0.563 2.061,0.984 3.375,1.266 -0.281,0.376 -0.587,0.963 -0.914,1.758 -0.33,0.798 -0.728,1.807 -1.195,3.023 0.655,0.844 1.639,1.807 2.953,2.883 1.312,1.079 2.718,1.853 4.219,2.32 V 29.813 h -4.5 c -1.595,0 -3.188,0.048 -4.781,0.141 v -2.672 c 1.593,0.095 3.467,0.141 5.625,0.141 h 10.124 z m 8.578,-3.516 c 0,0.657 0.046,1.547 0.141,2.672 H 17.91 v -3.375 h -22.5 v 3.375 h -2.953 c 0.092,-0.749 0.141,-1.593 0.141,-2.531 0,-0.936 -0.048,-1.969 -0.141,-3.094 h 28.406 c -0.094,1.314 -0.14,2.298 -0.14,2.953 z M 5.957,15.188 c 1.03,1.22 1.969,2.626 2.813,4.219 C 7.456,19.97 6.52,20.44 5.957,20.813 5.768,19.969 4.924,18.563 3.426,16.594 4.27,16.313 5.113,15.845 5.957,15.188 z"
   id="path133"
   inkscape:connector-curvature="0"
   style="fill:#f37526" />
		<path
   d="m 31.41,48.234 c 0.092,-1.033 0.141,-3.002 0.141,-5.906 v -7.875 c -0.281,1.125 -0.728,2.32 -1.336,3.586 -0.611,1.266 -1.244,2.415 -1.898,3.445 -0.657,-0.844 -1.501,-1.498 -2.531,-1.969 1.217,-1.312 2.32,-3.115 3.305,-5.414 0.984,-2.296 1.617,-4.335 1.898,-6.117 -0.844,0 -2.345,0.048 -4.5,0.141 v -2.531 c 2.155,0.095 3.843,0.141 5.063,0.141 v -5.906 l -3.797,0.844 c -0.281,-0.655 -0.611,-1.358 -0.984,-2.109 1.688,-0.281 3.256,-0.584 4.711,-0.914 1.452,-0.327 2.883,-0.819 4.289,-1.477 0.563,0.844 1.266,1.642 2.109,2.391 -0.844,0.095 -1.595,0.211 -2.25,0.352 -0.657,0.141 -1.173,0.259 -1.547,0.352 v 6.469 c 1.499,0 2.718,-0.046 3.656,-0.141 v 2.531 c -0.844,-0.092 -2.063,-0.141 -3.656,-0.141 v 4.359 c 0.374,-0.281 0.936,-0.749 1.688,-1.406 1.312,1.969 2.202,3.424 2.672,4.359 -0.751,0.563 -1.455,1.174 -2.109,1.828 -0.47,-1.312 -1.22,-2.718 -2.25,-4.219 v 9.422 c 0,2.439 0.046,4.405 0.141,5.906 H 31.41 z M 50.535,19.266 h 3.656 c 1.406,0 2.858,-0.046 4.359,-0.141 v 2.672 C 57.049,21.516 55.597,21.423 54.191,21.516 H 42.379 c -1.501,-0.092 -2.861,-0.092 -4.078,0 v -2.391 c 1.125,0.095 2.437,0.141 3.938,0.141 h 5.344 c -0.189,-0.563 -0.563,-1.639 -1.125,-3.234 1.125,-0.187 2.109,-0.422 2.953,-0.703 0.467,1.405 0.843,2.719 1.124,3.937 z m 7.875,13.781 c -0.095,0.938 -0.141,2.345 -0.141,4.219 v 7.031 c 0,1.688 -0.281,2.742 -0.844,3.164 -0.563,0.422 -1.828,0.865 -3.797,1.336 -0.281,-1.22 -0.703,-2.345 -1.266,-3.375 1.406,0.187 2.342,0.187 2.813,0 0.468,-0.189 0.703,-0.844 0.703,-1.969 V 35.156 H 41.254 v 13.359 h -2.531 c 0.092,-1.033 0.141,-3.656 0.141,-7.875 0,-4.219 -0.048,-6.75 -0.141,-7.594 H 58.41 z m -2.531,-5.625 c 0,1.033 0.046,2.204 0.141,3.516 H 40.832 c 0.092,-1.312 0.141,-2.483 0.141,-3.516 0,-1.03 -0.048,-2.155 -0.141,-3.375 H 56.02 c -0.095,1.125 -0.141,2.25 -0.141,3.375 z m -2.391,1.406 V 26.156 H 43.363 v 2.672 h 10.125 z m -0.843,11.813 c 0,1.22 0.046,2.345 0.141,3.375 h -9 c 0.092,-1.125 0.141,-2.25 0.141,-3.375 0,-1.217 -0.048,-2.342 -0.141,-3.375 h 9 c -0.095,1.033 -0.141,2.158 -0.141,3.375 z m -2.391,1.406 v -2.813 h -3.938 v 2.813 h 3.938 z"
   id="path135"
   inkscape:connector-curvature="0"
   style="fill:#f37526" />
	</g>
	<g
   id="g137">
		<path
   d="m 497.798,19.422 h 3.938 l -0.984,18.703 h -1.969 l -0.985,-18.703 z m 0,21.797 h 3.938 v 4.078 h -3.938 v -4.078 z"
   id="path139"
   inkscape:connector-curvature="0"
   style="fill:#ffffff" />
	</g>
</g>
</svg>