<?xml version="1.0" encoding="UTF-8" standalone="no"?>
<!-- Generator: Adobe Illustrator 17.0.0, SVG Export Plug-In . SVG Version: 6.00 Build 0)  -->

<svg
   xmlns:dc="http://purl.org/dc/elements/1.1/"
   xmlns:cc="http://creativecommons.org/ns#"
   xmlns:rdf="http://www.w3.org/1999/02/22-rdf-syntax-ns#"
   xmlns:svg="http://www.w3.org/2000/svg"
   xmlns="http://www.w3.org/2000/svg"
   xmlns:sodipodi="http://sodipodi.sourceforge.net/DTD/sodipodi-0.dtd"
   xmlns:inkscape="http://www.inkscape.org/namespaces/inkscape"
   version="1.1"
   x="0px"
   y="0px"
   width="400.26044"
   height="32.0005"
   viewBox="-149.98 0 400.26044 32.0005"
   enable-background="new -149.98 0 800.5 64"
   xml:space="preserve"
   id="svg2"
   inkscape:version="0.48.3.1 r9886"
   sodipodi:docname="cd_finished.flat.guokr.svg"><metadata
   id="metadata138"><rdf:RDF><cc:Work
       rdf:about=""><dc:format>image/svg+xml</dc:format><dc:type
         rdf:resource="http://purl.org/dc/dcmitype/StillImage" /><dc:title></dc:title></cc:Work></rdf:RDF></metadata><defs
   id="defs136" /><sodipodi:namedview
   pagecolor="#ffffff"
   bordercolor="#666666"
   borderopacity="1"
   objecttolerance="10"
   gridtolerance="10"
   guidetolerance="10"
   inkscape:pageopacity="0"
   inkscape:pageshadow="2"
   inkscape:window-width="695"
   inkscape:window-height="480"
   id="namedview134"
   showgrid="false"
   fit-margin-top="0"
   fit-margin-left="0"
   fit-margin-right="0"
   fit-margin-bottom="0"
   inkscape:zoom="1.4040858"
   inkscape:cx="200.13022"
   inkscape:cy="16.00025"
   inkscape:window-x="0"
   inkscape:window-y="24"
   inkscape:window-maximized="0"
   inkscape:current-layer="svg2" />
<g
   id="g4"
   sodipodi:docname="cc_byncnd.flat.guokr.svg"
   inkscape:version="0.48.2 r9819"
   transform="matrix(0.5,0,0,0.5,-74.979561,0)">
	
		<sodipodi:namedview
   showguides="true"
   fit-margin-left="0"
   fit-margin-top="0"
   inkscape:cy="32"
   inkscape:cx="175.51968"
   inkscape:zoom="2.72619"
   showgrid="true"
   guidetolerance="10"
   gridtolerance="10"
   objecttolerance="10"
   borderopacity="1"
   pagecolor="#ffffff"
   bordercolor="#666666"
   id="namedview31"
   inkscape:snap-global="false"
   inkscape:guide-bbox="true"
   inkscape:snap-page="false"
   inkscape:snap-grids="true"
   fit-margin-bottom="0"
   fit-margin-right="0"
   inkscape:current-layer="svg2"
   inkscape:window-maximized="0"
   inkscape:window-y="367"
   inkscape:window-x="102"
   inkscape:window-height="746"
   inkscape:window-width="1088"
   inkscape:pageshadow="2"
   inkscape:pageopacity="0">
		<sodipodi:guide
   position="24.952733,105.26934"
   orientation="1,0"
   id="guide3057" />
		<sodipodi:guide
   position="74.858199,102.93002"
   orientation="1,0"
   id="guide3059" />
		<sodipodi:guide
   position="-5.0685239,58.872855"
   orientation="0,1"
   id="guide3061" />
		<sodipodi:guide
   position="-22.613414,5.8482968"
   orientation="0,1"
   id="guide3063" />
		<inkscape:grid
   type="xygrid"
   enabled="true"
   empspacing="5"
   visible="true"
   id="grid3065"
   snapvisiblegridlinesonly="true">
			</inkscape:grid>
		<sodipodi:guide
   position="124.98094,66.588207"
   orientation="1,0"
   id="guide3067" />
		<sodipodi:guide
   position="174.83673,100.39453"
   orientation="1,0"
   id="guide3069" />
		<sodipodi:guide
   position="200.1061,86.393931"
   orientation="1,0"
   id="guide3071" />
		<sodipodi:guide
   position="249.96189,84.345063"
   orientation="1,0"
   id="guide3073" />
		<sodipodi:guide
   position="274.88978,61.466038"
   orientation="1,0"
   id="guide3075" />
		<sodipodi:guide
   position="325.08704,51.563176"
   orientation="1,0"
   id="guide3077" />
	</sodipodi:namedview>
	<path
   id="rect13"
   d="M -144.983,0.006 88.382,0 c 7.368,0 13.07,2.358 13.07,5.267 V 58.733 C 101.452,61.642 95.75,64 88.717,64 H -144.73 c -5.466,0 -5.27,-2.358 -5.27,-5.267 V 5.267 c 0,-2.909 -0.188,-5.267 5.017,-5.261 z"
   inkscape:connector-curvature="0"
   style="fill:#555555" />
	<path
   id="rect3034"
   d="m 107.727,0 h 536.517 c 3.466,0 6.276,2.81 6.276,6.276 v 51.449 c 0,3.466 -2.81,6.276 -6.276,6.276 H 107.727 c -3.466,0 -6.276,-2.81 -6.276,-6.276 V 6.276 C 101.452,2.81 104.262,0 107.727,0 z"
   inkscape:connector-curvature="0"
   style="fill:#85c155" />
	<path
   id="path17"
   inkscape:connector-curvature="0"
   d="m 92.22,0 h 35.688 V 64 H 92.22 l 0,-64 z"
   style="fill:#85c155" />
	<g
   id="layer3"
   transform="matrix(0.78125,0,0,0.78125,125.1302,6.798057)"
   inkscape:label="Dessin">
		<path
   id="path1334"
   inkscape:connector-curvature="0"
   d="M 31.188,0 C 13.905,0.438 0,14.612 0,32 0,49.664 14.336,64 32,64 49.664,64 64,49.664 64,32 64,14.336 49.664,0 32,0 31.724,0 31.462,-0.007 31.188,0 z M 31.156,5.5 C 31.44,5.491 31.714,5.5 32,5.5 46.628,5.5 58.5,17.372 58.5,32 58.5,46.628 46.628,58.5 32,58.5 17.372,58.5 5.5,46.628 5.5,32 5.5,17.658 16.923,5.951 31.156,5.5 z"
   style="fill:#ffffff" />
		<g
   id="g6525">
			
				<path
   id="path2838"
   sodipodi:type="arc"
   sodipodi:cx="32.0625"
   sodipodi:cy="15.75"
   sodipodi:rx="4.625"
   sodipodi:ry="4.625"
   d="m 36.6875,15.75 c 0,2.554317 -2.070683,4.625 -4.625,4.625 -2.554317,0 -4.625,-2.070683 -4.625,-4.625 0,-2.554317 2.070683,-4.625 4.625,-4.625 2.554317,0 4.625,2.070683 4.625,4.625 z"
   style="fill:#ffffff" />
			<path
   id="path3572"
   sodipodi:nodetypes="ccccssccssccc"
   inkscape:connector-curvature="0"
   d="m 27.215,52.689 h 9.57 V 37.311 h 2.893 c 0,0 -10e-4,-10.99 0,-12.72 -0.003,-0.456 0.041,-1.365 -0.621,-2.027 -0.662,-0.662 -1.555,-0.622 -2.027,-0.621 -0.472,10e-4 -9.589,10e-4 -10.06,0 -0.471,-0.001 -1.365,-0.041 -2.027,0.621 -0.662,0.662 -0.618,1.571 -0.621,2.027 0.001,1.73 0,12.72 0,12.72 h 2.893 l 0,15.378 z"
   style="fill:#ffffff" />
		</g>
	</g>
	<g
   id="g3001"
   transform="matrix(0.78998926,0,0,0.78890484,24.562303,6.561046)">
		<path
   id="path4"
   inkscape:connector-curvature="0"
   d="m -157.919,0.311 c -8.682,0 -16.322,3.213 -22.226,9.203 -6.078,6.164 -9.377,14.152 -9.377,22.486 0,8.422 3.212,16.236 9.29,22.313 6.078,6.078 13.978,9.377 22.313,9.377 8.334,0 16.409,-3.299 22.66,-9.463 5.904,-5.817 9.029,-13.544 9.029,-22.227 0,-8.595 -3.125,-16.408 -9.116,-22.399 -6.077,-6.078 -13.891,-9.29 -22.573,-9.29 z m 0.086,5.73 c 7.12,0 13.458,2.691 18.406,7.641 4.862,4.861 7.466,11.286 7.466,18.318 0,7.119 -2.518,13.371 -7.379,18.146 -5.123,5.035 -11.721,7.727 -18.493,7.727 -6.858,0 -13.283,-2.691 -18.232,-7.641 -4.949,-4.949 -7.727,-11.46 -7.727,-18.232 0,-6.858 2.778,-13.369 7.727,-18.406 4.862,-4.948 11.113,-7.553 18.232,-7.553 z"
   style="fill:#ffffff" />
		<path
   id="c"
   inkscape:connector-curvature="0"
   d="m -160.773,26.734 c -1.79,-3.264 -4.844,-4.563 -8.389,-4.563 -5.16,0 -9.267,3.65 -9.267,9.828 0,6.283 3.861,9.829 9.442,9.829 3.581,0 6.635,-1.966 8.319,-4.949 l -3.931,-2.001 c -0.878,2.105 -2.212,2.738 -3.896,2.738 -2.914,0 -4.248,-2.422 -4.248,-5.617 0,-3.193 1.124,-5.616 4.248,-5.616 0.842,0 2.527,0.456 3.51,2.563 l 4.212,-2.212 z"
   style="fill:#ffffff" />
	</g>
	<g
   id="g3118"
   transform="matrix(0.78125,0,0,0.78125,200.38329,6.7410061)">
		<path
   id="path1334-2"
   inkscape:connector-curvature="0"
   d="M 159.188,0 C 141.905,0.438 128,14.612 128,32 c 0,17.664 14.336,32 32,32 17.664,0 32,-14.336 32,-32 0,-17.664 -14.336,-32 -32,-32 -0.276,0 -0.538,-0.007 -0.812,0 z m -0.032,5.5 c 0.284,-0.009 0.558,0 0.844,0 14.628,0 26.5,11.872 26.5,26.5 0,14.628 -11.872,26.5 -26.5,26.5 -14.628,0 -26.5,-11.872 -26.5,-26.5 0,-14.342 11.423,-26.049 25.656,-26.5 z"
   style="fill:#ffffff" />
		<path
   id="text1367"
   sodipodi:nodetypes="cssscssssccscscscscsc"
   inkscape:connector-curvature="0"
   d="m 153.645,38.743 c 2.061,2.882 8.35,3.09 10.51,1.868 0.793,-0.449 0.991,-1.747 0.991,-2.627 0,-0.604 -0.159,-1.079 -0.477,-1.424 -0.336,-0.345 -1.189,-1.221 -2.178,-1.48 -5.016,-1.294 -8.492,-2.911 -9.852,-4.085 -1.696,-1.467 -1.969,-2.425 -1.969,-4.979 0,-2.554 0.734,-4.695 2.395,-6.231 1.66,-1.536 4.071,-2.304 7.233,-2.304 3.02,0 7.268,0.797 9.339,3.256 l -3.453,3.756 c -1.947,-1.635 -3.396,-1.783 -5.78,-1.783 -1.501,0 -2.283,0.216 -2.919,0.647 -0.636,0.414 -0.954,0.958 -0.954,1.631 0,0.604 0.291,1.105 0.874,1.501 0.583,0.414 2.106,1.036 5.144,1.864 3.409,0.932 5.723,2.062 6.942,3.391 1.201,1.329 1.802,3.098 1.802,5.307 0,2.658 -0.936,4.85 -2.808,6.575 -1.855,1.726 -4.138,3.067 -7.423,3.067 -4.229,0 -9.874,-1.494 -11.431,-4.255"
   style="fill:#ffffff" />
		<path
   id="rect2247"
   sodipodi:nodetypes="ccccc"
   inkscape:connector-curvature="0"
   d="m 187.344,40.106 -2.407,5.28 -51.122,-23.034 2.407,-5.28 51.122,23.034 z"
   style="fill:#ffffff" />
		<path
   id="rect2278"
   inkscape:connector-curvature="0"
   d="m 158.375,12.875 v 6.844 h 3.25 v -6.844 h -3.25 z m 0,32.094 v 6.156 h 3.25 v -6.156 h -3.25 z"
   style="fill:#ffffff" />
	</g>
	<g
   id="g3044"
   transform="matrix(0.78125,0,0,0.78125,274.79886,6.7898746)">
		<path
   id="path1334-3"
   inkscape:connector-curvature="0"
   d="m 287.47,0 c -17.283,0.438 -31.188,14.612 -31.188,32 0,17.664 14.336,32 32,32 17.664,0 32,-14.336 32,-32 0,-17.664 -14.336,-32 -32,-32 -0.275,0 -0.538,-0.007 -0.812,0 z m -0.031,5.5 c 0.284,-0.009 0.558,0 0.844,0 14.628,0 26.5,11.872 26.5,26.5 0,14.628 -11.872,26.5 -26.5,26.5 -14.628,0 -26.5,-11.872 -26.5,-26.5 0,-14.342 11.423,-26.049 25.656,-26.5 z"
   style="fill:#ffffff" />
		<path
   id="rect1338"
   inkscape:connector-curvature="0"
   d="m 277.067,24.432 h 23.563 v 5.78 h -23.563 v -5.78 z m 0,10.447 h 23.563 v 5.78 h -23.563 v -5.78 z"
   style="fill:#ffffff" />
	</g>
	<g
   id="g37">
		<path
   d="m 183.999,24 3.849,-10.021 h 1.429 L 193.378,24 h -1.511 l -1.169,-3.035 h -4.19 L 185.407,24 h -1.408 z m 2.892,-4.115 h 3.397 l -1.046,-2.775 c -0.319,-0.843 -0.556,-1.536 -0.711,-2.078 -0.128,0.643 -0.308,1.28 -0.54,1.914 l -1.1,2.939 z"
   id="path39"
   inkscape:connector-curvature="0"
   style="fill:#ffffff" />
		<path
   d="m 196.967,22.899 0.178,1.087 c -0.347,0.073 -0.656,0.109 -0.93,0.109 -0.446,0 -0.793,-0.07 -1.039,-0.212 -0.246,-0.142 -0.419,-0.327 -0.52,-0.558 -0.101,-0.229 -0.15,-0.714 -0.15,-1.452 v -4.177 h -0.902 V 16.74 h 0.902 v -1.798 l 1.224,-0.738 v 2.536 h 1.237 v 0.957 h -1.237 v 4.245 c 0,0.351 0.021,0.576 0.065,0.677 0.043,0.101 0.113,0.18 0.211,0.239 0.099,0.06 0.238,0.089 0.421,0.089 0.137,0 0.316,-0.015 0.54,-0.048 z"
   id="path41"
   inkscape:connector-curvature="0"
   style="fill:#ffffff" />
		<path
   d="m 200.857,22.899 0.178,1.087 c -0.347,0.073 -0.656,0.109 -0.93,0.109 -0.446,0 -0.793,-0.07 -1.039,-0.212 -0.246,-0.142 -0.419,-0.327 -0.52,-0.558 -0.101,-0.229 -0.15,-0.714 -0.15,-1.452 v -4.177 h -0.902 V 16.74 h 0.902 v -1.798 l 1.224,-0.738 v 2.536 h 1.237 v 0.957 h -1.237 v 4.245 c 0,0.351 0.021,0.576 0.065,0.677 0.043,0.101 0.113,0.18 0.211,0.239 0.099,0.06 0.238,0.089 0.421,0.089 0.136,0 0.316,-0.015 0.54,-0.048 z"
   id="path43"
   inkscape:connector-curvature="0"
   style="fill:#ffffff" />
		<path
   d="m 202.046,24 v -7.26 h 1.107 v 1.101 c 0.282,-0.515 0.544,-0.854 0.782,-1.019 0.24,-0.164 0.503,-0.246 0.79,-0.246 0.415,0 0.836,0.132 1.265,0.396 l -0.424,1.142 c -0.301,-0.178 -0.602,-0.267 -0.902,-0.267 -0.269,0 -0.511,0.081 -0.725,0.242 -0.214,0.162 -0.367,0.387 -0.458,0.674 -0.137,0.438 -0.205,0.916 -0.205,1.436 V 24 h -1.23 z"
   id="path45"
   inkscape:connector-curvature="0"
   style="fill:#ffffff" />
		<path
   d="m 206.729,15.394 v -1.415 h 1.23 v 1.415 h -1.23 z m 0,8.606 v -7.26 h 1.23 V 24 h -1.23 z"
   id="path47"
   inkscape:connector-curvature="0"
   style="fill:#ffffff" />
		<path
   d="m 210.967,24 h -1.142 V 13.979 h 1.23 v 3.575 c 0.52,-0.651 1.183,-0.978 1.989,-0.978 0.446,0 0.869,0.09 1.269,0.27 0.398,0.181 0.727,0.434 0.984,0.76 0.257,0.325 0.459,0.719 0.604,1.179 0.145,0.46 0.219,0.952 0.219,1.477 0,1.244 -0.308,2.206 -0.923,2.885 -0.615,0.679 -1.354,1.019 -2.215,1.019 -0.856,0 -1.529,-0.357 -2.017,-1.073 V 24 z m -0.014,-3.685 c 0,0.87 0.118,1.499 0.355,1.887 0.388,0.634 0.911,0.95 1.572,0.95 0.538,0 1.003,-0.233 1.395,-0.701 0.392,-0.467 0.588,-1.163 0.588,-2.088 0,-0.948 -0.188,-1.647 -0.563,-2.099 -0.377,-0.451 -0.831,-0.677 -1.364,-0.677 -0.538,0 -1.003,0.233 -1.395,0.701 -0.391,0.468 -0.588,1.144 -0.588,2.027 z"
   id="path49"
   inkscape:connector-curvature="0"
   style="fill:#ffffff" />
		<path
   d="m 222.376,24 v -1.066 c -0.565,0.82 -1.333,1.23 -2.304,1.23 -0.429,0 -0.828,-0.082 -1.199,-0.246 -0.372,-0.164 -0.647,-0.37 -0.828,-0.619 -0.18,-0.248 -0.306,-0.552 -0.379,-0.912 -0.05,-0.241 -0.075,-0.624 -0.075,-1.148 V 16.74 h 1.23 v 4.026 c 0,0.643 0.025,1.075 0.075,1.299 0.077,0.323 0.241,0.577 0.492,0.763 0.251,0.184 0.561,0.276 0.93,0.276 0.369,0 0.716,-0.095 1.039,-0.284 0.323,-0.188 0.553,-0.446 0.688,-0.771 0.134,-0.326 0.201,-0.799 0.201,-1.419 v -3.89 h 1.23 V 24 h -1.1 z"
   id="path51"
   inkscape:connector-curvature="0"
   style="fill:#ffffff" />
		<path
   d="m 228.091,22.899 0.178,1.087 c -0.347,0.073 -0.656,0.109 -0.93,0.109 -0.446,0 -0.793,-0.07 -1.039,-0.212 -0.246,-0.142 -0.419,-0.327 -0.52,-0.558 -0.101,-0.229 -0.15,-0.714 -0.15,-1.452 v -4.177 h -0.902 V 16.74 h 0.902 v -1.798 l 1.224,-0.738 v 2.536 h 1.237 v 0.957 h -1.237 v 4.245 c 0,0.351 0.021,0.576 0.065,0.677 0.043,0.101 0.113,0.18 0.211,0.239 0.099,0.06 0.238,0.089 0.421,0.089 0.137,0 0.316,-0.015 0.54,-0.048 z"
   id="path53"
   inkscape:connector-curvature="0"
   style="fill:#ffffff" />
		<path
   d="m 229.301,15.394 v -1.415 h 1.23 v 1.415 h -1.23 z m 0,8.606 v -7.26 h 1.23 V 24 h -1.23 z"
   id="path55"
   inkscape:connector-curvature="0"
   style="fill:#ffffff" />
		<path
   d="m 231.946,20.37 c 0,-1.345 0.374,-2.34 1.121,-2.987 0.624,-0.538 1.386,-0.807 2.283,-0.807 0.998,0 1.813,0.327 2.447,0.98 0.634,0.654 0.95,1.558 0.95,2.711 0,0.935 -0.14,1.669 -0.421,2.205 -0.279,0.535 -0.688,0.951 -1.223,1.247 -0.536,0.296 -1.12,0.444 -1.754,0.444 -1.017,0 -1.838,-0.326 -2.465,-0.978 -0.624,-0.65 -0.938,-1.589 -0.938,-2.815 z m 1.265,0 c 0,0.93 0.203,1.626 0.608,2.089 0.405,0.462 0.916,0.693 1.531,0.693 0.61,0 1.119,-0.232 1.524,-0.697 0.405,-0.465 0.608,-1.174 0.608,-2.126 0,-0.897 -0.204,-1.578 -0.611,-2.04 -0.408,-0.463 -0.915,-0.694 -1.521,-0.694 -0.615,0 -1.126,0.23 -1.531,0.69 -0.405,0.46 -0.608,1.155 -0.608,2.085 z"
   id="path57"
   inkscape:connector-curvature="0"
   style="fill:#ffffff" />
		<path
   d="m 240.191,24 v -7.26 h 1.107 v 1.032 c 0.533,-0.798 1.304,-1.196 2.311,-1.196 0.438,0 0.84,0.078 1.206,0.236 0.367,0.156 0.642,0.363 0.824,0.618 0.182,0.255 0.31,0.559 0.383,0.909 0.046,0.228 0.068,0.627 0.068,1.196 V 24 h -1.23 v -4.416 c 0,-0.501 -0.048,-0.876 -0.144,-1.125 -0.096,-0.248 -0.266,-0.446 -0.509,-0.594 -0.244,-0.148 -0.53,-0.223 -0.858,-0.223 -0.524,0 -0.977,0.166 -1.356,0.499 -0.381,0.333 -0.571,0.964 -0.571,1.894 V 24 h -1.231 z"
   id="path59"
   inkscape:connector-curvature="0"
   style="fill:#ffffff" />
		<path
   d="M 360.92,24 V 13.979 h 1.36 l 5.264,7.868 v -7.868 h 1.271 V 24 h -1.36 l -5.264,-7.875 V 24 h -1.271 z"
   id="path61"
   inkscape:connector-curvature="0"
   style="fill:#ffffff" />
		<path
   d="m 370.429,20.37 c 0,-1.345 0.374,-2.34 1.121,-2.987 0.624,-0.538 1.386,-0.807 2.283,-0.807 0.998,0 1.813,0.327 2.447,0.98 0.634,0.654 0.95,1.558 0.95,2.711 0,0.935 -0.14,1.669 -0.421,2.205 -0.279,0.535 -0.688,0.951 -1.223,1.247 -0.536,0.296 -1.12,0.444 -1.754,0.444 -1.017,0 -1.838,-0.326 -2.465,-0.978 -0.625,-0.65 -0.938,-1.589 -0.938,-2.815 z m 1.265,0 c 0,0.93 0.203,1.626 0.608,2.089 0.405,0.462 0.916,0.693 1.531,0.693 0.61,0 1.119,-0.232 1.524,-0.697 0.405,-0.465 0.608,-1.174 0.608,-2.126 0,-0.897 -0.204,-1.578 -0.611,-2.04 -0.408,-0.463 -0.915,-0.694 -1.521,-0.694 -0.615,0 -1.126,0.23 -1.531,0.69 -0.405,0.46 -0.608,1.155 -0.608,2.085 z"
   id="path63"
   inkscape:connector-curvature="0"
   style="fill:#ffffff" />
		<path
   d="m 378.673,24 v -7.26 h 1.107 v 1.032 c 0.533,-0.798 1.304,-1.196 2.311,-1.196 0.438,0 0.84,0.078 1.206,0.236 0.367,0.156 0.642,0.363 0.824,0.618 0.182,0.255 0.31,0.559 0.383,0.909 0.046,0.228 0.068,0.627 0.068,1.196 V 24 h -1.23 v -4.416 c 0,-0.501 -0.048,-0.876 -0.144,-1.125 -0.096,-0.248 -0.266,-0.446 -0.509,-0.594 -0.244,-0.148 -0.53,-0.223 -0.858,-0.223 -0.524,0 -0.977,0.166 -1.356,0.499 -0.381,0.333 -0.571,0.964 -0.571,1.894 V 24 h -1.231 z"
   id="path65"
   inkscape:connector-curvature="0"
   style="fill:#ffffff" />
		<path
   d="m 393.767,20.486 1.326,0.335 c -0.278,1.089 -0.778,1.92 -1.5,2.491 -0.723,0.572 -1.605,0.858 -2.649,0.858 -1.08,0 -1.958,-0.22 -2.636,-0.659 -0.676,-0.44 -1.191,-1.077 -1.545,-1.911 -0.353,-0.834 -0.529,-1.729 -0.529,-2.687 0,-1.044 0.199,-1.954 0.598,-2.73 0.399,-0.777 0.967,-1.367 1.703,-1.771 0.735,-0.402 1.546,-0.604 2.43,-0.604 1.003,0 1.846,0.255 2.529,0.766 0.683,0.511 1.16,1.229 1.429,2.153 l -1.306,0.308 c -0.232,-0.729 -0.569,-1.26 -1.012,-1.593 -0.443,-0.333 -0.998,-0.499 -1.668,-0.499 -0.771,0 -1.414,0.185 -1.932,0.554 -0.517,0.369 -0.88,0.865 -1.09,1.486 -0.21,0.623 -0.314,1.264 -0.314,1.925 0,0.853 0.124,1.597 0.373,2.231 0.248,0.637 0.634,1.111 1.158,1.426 0.524,0.315 1.092,0.472 1.702,0.472 0.743,0 1.372,-0.214 1.887,-0.643 0.515,-0.429 0.863,-1.065 1.046,-1.908 z"
   id="path67"
   inkscape:connector-curvature="0"
   style="fill:#ffffff" />
		<path
   d="m 396.111,20.37 c 0,-1.345 0.374,-2.34 1.121,-2.987 0.624,-0.538 1.386,-0.807 2.283,-0.807 0.998,0 1.813,0.327 2.447,0.98 0.634,0.654 0.95,1.558 0.95,2.711 0,0.935 -0.14,1.669 -0.421,2.205 -0.279,0.535 -0.688,0.951 -1.223,1.247 -0.536,0.296 -1.12,0.444 -1.754,0.444 -1.017,0 -1.838,-0.326 -2.465,-0.978 -0.624,-0.65 -0.938,-1.589 -0.938,-2.815 z m 1.265,0 c 0,0.93 0.203,1.626 0.608,2.089 0.405,0.462 0.916,0.693 1.531,0.693 0.61,0 1.119,-0.232 1.524,-0.697 0.405,-0.465 0.608,-1.174 0.608,-2.126 0,-0.897 -0.204,-1.578 -0.611,-2.04 -0.408,-0.463 -0.915,-0.694 -1.521,-0.694 -0.615,0 -1.126,0.23 -1.531,0.69 -0.405,0.46 -0.608,1.155 -0.608,2.085 z"
   id="path69"
   inkscape:connector-curvature="0"
   style="fill:#ffffff" />
		<path
   d="m 404.356,24 v -7.26 h 1.101 v 1.019 c 0.228,-0.355 0.531,-0.642 0.909,-0.858 0.378,-0.216 0.809,-0.324 1.292,-0.324 0.538,0 0.979,0.111 1.322,0.335 0.345,0.224 0.587,0.535 0.729,0.937 0.574,-0.848 1.321,-1.271 2.242,-1.271 0.72,0 1.273,0.199 1.661,0.598 0.388,0.399 0.581,1.014 0.581,1.843 V 24 h -1.224 v -4.573 c 0,-0.492 -0.04,-0.847 -0.12,-1.063 -0.079,-0.216 -0.224,-0.391 -0.434,-0.522 -0.21,-0.131 -0.456,-0.198 -0.738,-0.198 -0.511,0 -0.935,0.17 -1.271,0.51 -0.337,0.339 -0.506,0.883 -0.506,1.63 V 24 h -1.23 v -4.717 c 0,-0.547 -0.101,-0.957 -0.301,-1.23 -0.2,-0.273 -0.528,-0.41 -0.984,-0.41 -0.347,0 -0.666,0.091 -0.961,0.273 -0.293,0.183 -0.507,0.449 -0.639,0.8 -0.132,0.351 -0.198,0.856 -0.198,1.518 V 24 h -1.231 z"
   id="path71"
   inkscape:connector-curvature="0"
   style="fill:#ffffff" />
		<path
   d="m 416.018,24 v -7.26 h 1.101 v 1.019 c 0.228,-0.355 0.531,-0.642 0.909,-0.858 0.378,-0.216 0.809,-0.324 1.292,-0.324 0.538,0 0.979,0.111 1.322,0.335 0.345,0.224 0.587,0.535 0.729,0.937 0.574,-0.848 1.321,-1.271 2.242,-1.271 0.72,0 1.273,0.199 1.661,0.598 0.388,0.399 0.581,1.014 0.581,1.843 V 24 h -1.224 v -4.573 c 0,-0.492 -0.04,-0.847 -0.12,-1.063 -0.079,-0.216 -0.224,-0.391 -0.434,-0.522 -0.21,-0.131 -0.456,-0.198 -0.738,-0.198 -0.511,0 -0.935,0.17 -1.271,0.51 -0.337,0.339 -0.506,0.883 -0.506,1.63 V 24 h -1.23 v -4.717 c 0,-0.547 -0.101,-0.957 -0.301,-1.23 -0.2,-0.273 -0.528,-0.41 -0.984,-0.41 -0.347,0 -0.666,0.091 -0.961,0.273 -0.293,0.183 -0.507,0.449 -0.639,0.8 -0.132,0.351 -0.198,0.856 -0.198,1.518 V 24 h -1.231 z"
   id="path73"
   inkscape:connector-curvature="0"
   style="fill:#ffffff" />
		<path
   d="m 432.65,21.662 1.271,0.157 c -0.2,0.743 -0.572,1.319 -1.114,1.729 -0.542,0.41 -1.235,0.615 -2.078,0.615 -1.062,0 -1.903,-0.327 -2.526,-0.98 -0.621,-0.654 -0.933,-1.571 -0.933,-2.752 0,-1.222 0.314,-2.169 0.943,-2.844 0.629,-0.675 1.444,-1.012 2.447,-1.012 0.971,0 1.764,0.33 2.379,0.991 0.615,0.661 0.923,1.591 0.923,2.789 0,0.073 -0.002,0.183 -0.007,0.328 h -5.414 c 0.046,0.798 0.271,1.408 0.677,1.832 0.406,0.424 0.911,0.636 1.518,0.636 0.451,0 0.836,-0.118 1.155,-0.355 0.319,-0.237 0.572,-0.614 0.759,-1.134 z m -4.04,-1.989 h 4.054 c -0.055,-0.61 -0.21,-1.068 -0.465,-1.374 -0.392,-0.474 -0.9,-0.711 -1.524,-0.711 -0.565,0 -1.04,0.189 -1.425,0.567 -0.387,0.378 -0.599,0.884 -0.64,1.518 z"
   id="path75"
   inkscape:connector-curvature="0"
   style="fill:#ffffff" />
		<path
   d="m 435.452,24 v -7.26 h 1.107 v 1.101 c 0.282,-0.515 0.544,-0.854 0.782,-1.019 0.24,-0.164 0.503,-0.246 0.79,-0.246 0.415,0 0.836,0.132 1.265,0.396 l -0.424,1.142 c -0.301,-0.178 -0.602,-0.267 -0.902,-0.267 -0.269,0 -0.511,0.081 -0.725,0.242 -0.214,0.162 -0.367,0.387 -0.458,0.674 -0.137,0.438 -0.205,0.916 -0.205,1.436 V 24 h -1.23 z"
   id="path77"
   inkscape:connector-curvature="0"
   style="fill:#ffffff" />
		<path
   d="m 444.865,21.341 1.21,0.157 c -0.132,0.834 -0.471,1.486 -1.015,1.959 -0.545,0.471 -1.214,0.707 -2.007,0.707 -0.993,0 -1.792,-0.324 -2.396,-0.975 -0.604,-0.648 -0.906,-1.58 -0.906,-2.792 0,-0.784 0.13,-1.47 0.39,-2.058 0.26,-0.588 0.655,-1.029 1.187,-1.322 0.53,-0.295 1.108,-0.441 1.732,-0.441 0.788,0 1.434,0.199 1.935,0.598 0.501,0.399 0.822,0.966 0.964,1.699 l -1.196,0.185 c -0.114,-0.487 -0.315,-0.854 -0.604,-1.101 -0.29,-0.246 -0.64,-0.369 -1.05,-0.369 -0.62,0 -1.123,0.223 -1.511,0.666 -0.388,0.445 -0.581,1.147 -0.581,2.109 0,0.976 0.187,1.684 0.561,2.126 0.374,0.442 0.861,0.663 1.463,0.663 0.483,0 0.887,-0.148 1.21,-0.444 0.323,-0.296 0.527,-0.752 0.614,-1.367 z"
   id="path79"
   inkscape:connector-curvature="0"
   style="fill:#ffffff" />
		<path
   d="m 447.135,15.394 v -1.415 h 1.23 v 1.415 h -1.23 z m 0,8.606 v -7.26 h 1.23 V 24 h -1.23 z"
   id="path81"
   inkscape:connector-curvature="0"
   style="fill:#ffffff" />
		<path
   d="m 454.976,23.104 c -0.456,0.388 -0.895,0.661 -1.316,0.82 -0.421,0.159 -0.873,0.239 -1.356,0.239 -0.798,0 -1.41,-0.195 -1.839,-0.584 -0.429,-0.391 -0.643,-0.888 -0.643,-1.494 0,-0.355 0.081,-0.68 0.242,-0.975 0.162,-0.293 0.374,-0.529 0.637,-0.707 0.262,-0.178 0.557,-0.313 0.885,-0.403 0.241,-0.063 0.606,-0.125 1.094,-0.185 0.993,-0.118 1.725,-0.26 2.194,-0.424 0.005,-0.169 0.007,-0.275 0.007,-0.321 0,-0.501 -0.116,-0.854 -0.349,-1.06 -0.314,-0.278 -0.781,-0.417 -1.401,-0.417 -0.579,0 -1.006,0.102 -1.281,0.304 -0.276,0.203 -0.48,0.563 -0.612,1.077 l -1.203,-0.164 c 0.109,-0.515 0.289,-0.931 0.54,-1.247 0.251,-0.317 0.613,-0.561 1.087,-0.732 0.474,-0.17 1.023,-0.256 1.647,-0.256 0.62,0 1.123,0.073 1.511,0.219 0.388,0.146 0.672,0.329 0.854,0.551 0.183,0.221 0.31,0.5 0.383,0.837 0.041,0.21 0.062,0.588 0.062,1.135 v 1.641 c 0,1.144 0.026,1.867 0.079,2.171 0.052,0.303 0.155,0.593 0.311,0.871 h -1.285 c -0.13,-0.255 -0.212,-0.554 -0.248,-0.896 z m -0.103,-2.748 c -0.446,0.183 -1.116,0.337 -2.01,0.465 -0.506,0.073 -0.863,0.155 -1.073,0.246 -0.21,0.091 -0.371,0.225 -0.485,0.399 -0.114,0.176 -0.171,0.371 -0.171,0.585 0,0.328 0.124,0.602 0.373,0.82 0.248,0.219 0.611,0.328 1.09,0.328 0.474,0 0.896,-0.104 1.265,-0.312 0.369,-0.207 0.641,-0.49 0.813,-0.851 0.132,-0.278 0.198,-0.688 0.198,-1.23 v -0.45 z"
   id="path83"
   inkscape:connector-curvature="0"
   style="fill:#ffffff" />
		<path
   d="M 457.997,24 V 13.979 h 1.23 V 24 h -1.23 z"
   id="path85"
   inkscape:connector-curvature="0"
   style="fill:#ffffff" />
		<path
   d="M 539.071,24 V 13.979 h 1.36 l 5.264,7.868 v -7.868 h 1.271 V 24 h -1.36 l -5.264,-7.875 V 24 h -1.271 z"
   id="path87"
   inkscape:connector-curvature="0"
   style="fill:#ffffff" />
		<path
   d="m 548.58,20.37 c 0,-1.345 0.374,-2.34 1.121,-2.987 0.624,-0.538 1.386,-0.807 2.283,-0.807 0.998,0 1.813,0.327 2.447,0.98 0.634,0.654 0.95,1.558 0.95,2.711 0,0.935 -0.14,1.669 -0.421,2.205 -0.279,0.535 -0.688,0.951 -1.223,1.247 -0.536,0.296 -1.12,0.444 -1.754,0.444 -1.017,0 -1.838,-0.326 -2.465,-0.978 -0.624,-0.65 -0.938,-1.589 -0.938,-2.815 z m 1.265,0 c 0,0.93 0.203,1.626 0.608,2.089 0.405,0.462 0.916,0.693 1.531,0.693 0.61,0 1.119,-0.232 1.524,-0.697 0.405,-0.465 0.608,-1.174 0.608,-2.126 0,-0.897 -0.204,-1.578 -0.611,-2.04 -0.408,-0.463 -0.915,-0.694 -1.521,-0.694 -0.615,0 -1.126,0.23 -1.531,0.69 -0.405,0.46 -0.608,1.155 -0.608,2.085 z"
   id="path89"
   inkscape:connector-curvature="0"
   style="fill:#ffffff" />
		<path
   d="M 556.982,24 V 13.979 h 3.452 c 0.779,0 1.374,0.048 1.784,0.144 0.574,0.132 1.064,0.371 1.47,0.718 0.528,0.446 0.924,1.018 1.187,1.713 0.262,0.694 0.393,1.488 0.393,2.382 0,0.761 -0.089,1.436 -0.267,2.023 -0.178,0.587 -0.405,1.074 -0.684,1.46 -0.278,0.385 -0.582,0.688 -0.913,0.908 -0.33,0.222 -0.729,0.389 -1.195,0.503 -0.468,0.114 -1.004,0.171 -1.61,0.171 h -3.617 z m 1.326,-1.183 h 2.14 c 0.661,0 1.179,-0.062 1.556,-0.185 0.375,-0.123 0.675,-0.296 0.898,-0.52 0.314,-0.314 0.56,-0.737 0.734,-1.268 0.176,-0.531 0.264,-1.175 0.264,-1.932 0,-1.048 -0.172,-1.854 -0.516,-2.416 -0.345,-0.563 -0.763,-0.94 -1.255,-1.132 -0.355,-0.137 -0.928,-0.205 -1.716,-0.205 h -2.105 v 7.658 z"
   id="path91"
   inkscape:connector-curvature="0"
   style="fill:#ffffff" />
		<path
   d="m 571.904,21.662 1.271,0.157 c -0.2,0.743 -0.572,1.319 -1.114,1.729 -0.542,0.41 -1.235,0.615 -2.078,0.615 -1.062,0 -1.903,-0.327 -2.526,-0.98 -0.621,-0.654 -0.933,-1.571 -0.933,-2.752 0,-1.222 0.314,-2.169 0.943,-2.844 0.629,-0.675 1.444,-1.012 2.447,-1.012 0.971,0 1.764,0.33 2.379,0.991 0.615,0.661 0.923,1.591 0.923,2.789 0,0.073 -0.002,0.183 -0.007,0.328 h -5.414 c 0.046,0.798 0.271,1.408 0.677,1.832 0.406,0.424 0.911,0.636 1.518,0.636 0.451,0 0.836,-0.118 1.155,-0.355 0.319,-0.237 0.573,-0.614 0.759,-1.134 z m -4.04,-1.989 h 4.054 c -0.055,-0.61 -0.21,-1.068 -0.465,-1.374 -0.392,-0.474 -0.9,-0.711 -1.524,-0.711 -0.565,0 -1.04,0.189 -1.425,0.567 -0.386,0.378 -0.599,0.884 -0.64,1.518 z"
   id="path93"
   inkscape:connector-curvature="0"
   style="fill:#ffffff" />
		<path
   d="m 574.707,24 v -7.26 h 1.107 v 1.101 c 0.282,-0.515 0.544,-0.854 0.782,-1.019 0.24,-0.164 0.503,-0.246 0.79,-0.246 0.415,0 0.836,0.132 1.265,0.396 l -0.424,1.142 c -0.301,-0.178 -0.602,-0.267 -0.902,-0.267 -0.269,0 -0.511,0.081 -0.725,0.242 -0.214,0.162 -0.367,0.387 -0.458,0.674 -0.137,0.438 -0.205,0.916 -0.205,1.436 V 24 h -1.23 z"
   id="path95"
   inkscape:connector-curvature="0"
   style="fill:#ffffff" />
		<path
   d="m 579.39,15.394 v -1.415 h 1.23 v 1.415 h -1.23 z m 0,8.606 v -7.26 h 1.23 V 24 h -1.23 z"
   id="path97"
   inkscape:connector-curvature="0"
   style="fill:#ffffff" />
		<path
   d="m 584.51,24 -2.762,-7.26 h 1.299 l 1.559,4.348 c 0.169,0.47 0.323,0.957 0.465,1.463 0.109,-0.383 0.262,-0.843 0.458,-1.381 l 1.613,-4.43 h 1.265 L 585.658,24 h -1.148 z"
   id="path99"
   inkscape:connector-curvature="0"
   style="fill:#ffffff" />
		<path
   d="m 589.001,21.833 1.217,-0.191 c 0.068,0.487 0.259,0.861 0.571,1.121 0.312,0.26 0.748,0.39 1.309,0.39 0.565,0 0.984,-0.115 1.258,-0.346 0.273,-0.229 0.41,-0.5 0.41,-0.81 0,-0.278 -0.121,-0.497 -0.362,-0.656 -0.169,-0.109 -0.588,-0.248 -1.258,-0.417 -0.902,-0.228 -1.528,-0.425 -1.876,-0.592 -0.35,-0.166 -0.613,-0.396 -0.793,-0.689 -0.181,-0.295 -0.271,-0.619 -0.271,-0.975 0,-0.323 0.074,-0.623 0.222,-0.898 0.148,-0.276 0.351,-0.505 0.605,-0.688 0.191,-0.142 0.452,-0.261 0.783,-0.359 0.33,-0.098 0.685,-0.146 1.063,-0.146 0.569,0 1.07,0.082 1.5,0.246 0.432,0.164 0.749,0.387 0.954,0.666 0.205,0.281 0.347,0.655 0.424,1.125 l -1.203,0.164 c -0.055,-0.374 -0.213,-0.665 -0.476,-0.875 -0.262,-0.21 -0.632,-0.314 -1.11,-0.314 -0.565,0 -0.969,0.094 -1.21,0.28 -0.241,0.186 -0.362,0.405 -0.362,0.656 0,0.159 0.05,0.303 0.15,0.431 0.101,0.132 0.258,0.241 0.472,0.328 0.123,0.046 0.485,0.15 1.087,0.314 0.87,0.232 1.478,0.423 1.821,0.57 0.345,0.148 0.614,0.364 0.811,0.646 0.197,0.282 0.294,0.634 0.294,1.053 0,0.41 -0.12,0.797 -0.358,1.158 -0.24,0.363 -0.585,0.643 -1.036,0.842 -0.451,0.197 -0.962,0.297 -1.531,0.297 -0.943,0 -1.662,-0.196 -2.157,-0.588 -0.496,-0.391 -0.811,-0.972 -0.948,-1.743 z"
   id="path101"
   inkscape:connector-curvature="0"
   style="fill:#ffffff" />
		<path
   d="m 195.363,39.486 c 1.317,0 2.521,-0.057 3.609,-0.172 v 1.547 c 1.317,-1.031 2.177,-1.861 2.578,-2.492 0.4,0.573 0.974,1.003 1.719,1.289 -0.631,0.401 -1.318,0.846 -2.063,1.332 -0.745,0.487 -1.433,0.96 -2.063,1.418 h 2.75 c 0.916,0 1.833,-0.028 2.75,-0.086 v 1.461 c -0.917,-0.057 -1.834,-0.086 -2.75,-0.086 h -4.898 c -0.401,0.229 -1.117,0.631 -2.148,1.203 h 6.961 c -0.058,1.031 -0.086,2.292 -0.086,3.781 0,1.433 0.028,2.635 0.086,3.609 h -1.633 v -0.688 h -9.367 v 0.945 h -1.719 c 0.057,-1.089 0.086,-2.721 0.086,-4.898 -1.089,0.401 -2.148,0.773 -3.18,1.117 -0.172,-0.516 -0.459,-1.002 -0.859,-1.461 0.859,-0.172 2.205,-0.602 4.039,-1.289 V 44.9 h 2.406 c 1.146,-0.458 2.033,-0.859 2.664,-1.203 h -6.188 c -0.917,0 -1.776,0.029 -2.578,0.086 v -1.461 c 0.802,0.058 1.689,0.086 2.664,0.086 h 5.586 v -1.547 h -3.438 c -0.917,0 -1.776,0.029 -2.578,0.086 v -1.633 c 0.802,0.115 1.661,0.172 2.578,0.172 h 3.438 v -1.461 h 1.719 c -0.056,0.574 -0.085,1.061 -0.085,1.461 z m 7.047,-3.953 c 0,0.745 0.028,1.461 0.086,2.148 h -14.953 c 0.057,-0.859 0.086,-1.633 0.086,-2.32 0,-0.687 -0.029,-1.432 -0.086,-2.234 h 14.953 c -0.057,0.803 -0.086,1.604 -0.086,2.406 z m -10.312,0.946 v -2.063 h -2.922 v 2.063 h 2.922 z m -1.289,11.257 h 9.367 v -1.461 h -7.992 c -0.631,0.287 -1.089,0.516 -1.375,0.688 v 0.773 z m 9.367,2.493 V 48.94 h -9.367 v 1.289 h 9.367 z m -3.695,-13.75 v -2.063 h -2.836 v 2.063 h 2.836 z m 0,5.929 c 0.344,-0.229 1.146,-0.744 2.406,-1.547 h -3.523 v 1.547 h 1.117 z m 4.382,-5.929 v -2.063 h -2.836 v 2.063 h 2.836 z"
   id="path103"
   inkscape:connector-curvature="0"
   style="fill:#ffffff" />
		<path
   d="m 215.258,34.072 c -0.201,0.287 -0.444,0.631 -0.73,1.031 h 9.883 c -0.688,1.031 -1.647,2.335 -2.879,3.91 -1.232,1.576 -2.994,3.08 -5.285,4.512 h 8.68 c -0.058,0.859 -0.086,1.748 -0.086,2.664 v 3.523 c 0,0.974 0.028,1.919 0.086,2.836 h -1.805 v -1.891 h -9.367 v 1.977 h -1.719 c 0.057,-0.803 0.086,-1.719 0.086,-2.75 v -4.297 c -1.891,0.803 -3.209,1.318 -3.953,1.547 -0.229,-0.572 -0.602,-1.117 -1.117,-1.633 1.489,-0.286 3.137,-0.802 4.941,-1.547 1.805,-0.744 3.193,-1.489 4.168,-2.234 -1.261,-1.146 -2.378,-2.033 -3.352,-2.664 0.4,-0.344 0.802,-0.773 1.203,-1.289 1.833,1.49 3.036,2.464 3.609,2.922 1.432,-1.088 2.721,-2.492 3.867,-4.211 h -7.82 c -1.719,2.063 -3.065,3.467 -4.039,4.211 -0.344,-0.344 -0.859,-0.716 -1.547,-1.117 1.317,-0.859 2.449,-1.848 3.395,-2.965 0.946,-1.117 1.818,-2.535 2.621,-4.254 0.744,0.401 1.375,0.688 1.891,0.859 -0.288,0.288 -0.531,0.574 -0.731,0.86 z m 7.863,15.211 V 44.9 h -9.367 v 4.383 h 9.367 z"
   id="path105"
   inkscape:connector-curvature="0"
   style="fill:#ffffff" />
		<path
   d="m 367.41,36.479 v -1.891 c 0,-0.4 -0.029,-0.945 -0.086,-1.633 h 1.891 c -0.058,0.573 -0.086,1.519 -0.086,2.836 v 12.977 c 0,1.318 0.028,2.463 0.086,3.438 h -1.891 c 0.057,-0.975 0.086,-1.748 0.086,-2.32 v -1.977 h -3.867 c -0.803,0 -1.576,0.058 -2.32,0.172 v -1.719 c 0.744,0.058 1.489,0.086 2.234,0.086 h 3.953 V 42.58 h -2.578 c -0.803,0 -1.662,0.029 -2.578,0.086 v -1.547 c 0.916,0.058 1.805,0.086 2.664,0.086 h 2.492 v -3.266 h -3.609 c -0.688,0 -1.461,0.029 -2.32,0.086 v -1.633 c 0.859,0.058 1.633,0.086 2.32,0.086 h 3.609 z m 13.063,11.601 c -0.573,-0.114 -1.347,-0.172 -2.32,-0.172 h -4.297 v 1.977 c 0,1.088 0.028,1.947 0.086,2.578 h -1.805 c 0.057,-0.631 0.086,-1.433 0.086,-2.406 V 35.963 c 0,-1.547 -0.029,-2.606 -0.086,-3.18 h 1.891 c -0.115,0.573 -0.172,1.175 -0.172,1.805 v 1.891 h 4.039 c 0.859,0 1.633,-0.028 2.32,-0.086 v 1.633 c -0.688,-0.057 -1.519,-0.086 -2.492,-0.086 h -3.867 v 3.266 h 3.609 c 0.802,0 1.489,-0.028 2.063,-0.086 v 1.547 c -0.516,-0.057 -1.203,-0.086 -2.063,-0.086 h -3.609 v 3.867 h 4.297 c 0.859,0 1.633,-0.028 2.32,-0.086 v 1.718 z"
   id="path107"
   inkscape:connector-curvature="0"
   style="fill:#ffffff" />
		<path
   d="m 394.223,34.846 h 4.898 c 1.146,0 2.291,-0.028 3.438,-0.086 v 1.547 c -1.146,-0.057 -2.292,-0.086 -3.438,-0.086 h -9.883 c 1.088,1.146 1.747,1.891 1.977,2.234 -0.401,0.172 -0.831,0.43 -1.289,0.773 h 4.641 c 0.344,-0.916 0.688,-1.891 1.031,-2.922 0.572,0.229 1.231,0.43 1.977,0.602 -0.401,0.516 -0.859,1.289 -1.375,2.32 h 4.813 c -0.058,0.688 -0.086,1.633 -0.086,2.836 v 8.508 c 0,0.688 -0.315,1.174 -0.945,1.461 -0.631,0.286 -1.49,0.516 -2.578,0.688 -0.058,-0.688 -0.287,-1.318 -0.688,-1.891 1.146,0.057 1.861,0 2.148,-0.172 0.286,-0.172 0.43,-0.458 0.43,-0.859 v -9.367 h -12.547 v 12.031 h -1.719 c 0.057,-1.49 0.086,-2.549 0.086,-3.18 v -7.391 c 0,-0.572 -0.029,-1.461 -0.086,-2.664 h 4.727 c -0.401,-0.688 -1.061,-1.403 -1.977,-2.148 0.458,-0.229 0.888,-0.516 1.289,-0.859 h -1.977 c -1.318,0 -2.464,0.029 -3.438,0.086 V 34.76 c 0.974,0.058 2.091,0.086 3.352,0.086 h 5.328 c -0.172,-0.572 -0.545,-1.174 -1.117,-1.805 0.572,-0.172 1.117,-0.372 1.633,-0.602 0.744,1.147 1.203,1.949 1.375,2.407 z m -1.633,7.476 c -0.573,0.287 -1.404,1.061 -2.492,2.32 h 6.531 c -0.058,0.745 -0.086,1.547 -0.086,2.406 0,0.859 0.028,1.719 0.086,2.578 h -6.703 c 0.057,-0.859 0.086,-1.689 0.086,-2.492 0,-0.859 -0.029,-1.633 -0.086,-2.32 -0.401,0.344 -0.803,0.659 -1.203,0.945 -0.287,-0.4 -0.717,-0.716 -1.289,-0.945 1.775,-1.375 2.95,-2.549 3.523,-3.523 0.572,0.401 1.117,0.745 1.633,1.031 z m 2.32,6.016 v -2.406 h -3.352 v 2.406 h 3.352 z m 3.953,-4.297 c -0.516,0.287 -0.945,0.659 -1.289,1.117 -0.573,-0.688 -1.776,-1.633 -3.609,-2.836 0.4,-0.286 0.744,-0.658 1.031,-1.117 1.604,1.031 2.893,1.977 3.867,2.836 z"
   id="path109"
   inkscape:connector-curvature="0"
   style="fill:#ffffff" />
		<path
   d="m 406.813,48.338 c 0.372,-1.088 0.602,-2.177 0.688,-3.266 0.086,-1.088 0.129,-2.922 0.129,-5.5 0,-2.578 -0.029,-4.641 -0.086,-6.188 h 15.383 c -0.058,1.662 -0.086,3.151 -0.086,4.469 v 11.258 c 0,1.203 -0.344,1.947 -1.031,2.234 -0.688,0.286 -1.49,0.486 -2.406,0.602 -0.115,-0.859 -0.315,-1.519 -0.602,-1.977 1.146,0.058 1.818,0.015 2.02,-0.129 0.2,-0.143 0.301,-0.415 0.301,-0.816 v -4.297 h -5.242 v 3.352 c 0,1.261 0.028,2.406 0.086,3.438 h -1.891 c 0.057,-0.975 0.086,-2.091 0.086,-3.352 v -3.438 h -4.898 c -0.229,2.464 -1.003,4.956 -2.32,7.477 -0.631,-0.401 -1.203,-0.659 -1.719,-0.773 0.685,-0.975 1.215,-2.005 1.588,-3.094 z m 7.347,-9.883 V 34.76 h -4.898 v 3.695 h 4.898 z m 0,4.899 v -3.609 h -4.898 v 3.609 h 4.898 z m 6.961,-4.899 V 34.76 h -5.242 v 3.695 h 5.242 z m 0,4.899 v -3.609 h -5.242 v 3.609 h 5.242 z"
   id="path111"
   inkscape:connector-curvature="0"
   style="fill:#ffffff" />
		<path
   d="m 542.035,38.541 -1.375,1.547 c -0.459,0.516 -1.146,1.175 -2.063,1.977 -0.401,-0.344 -0.889,-0.716 -1.461,-1.117 1.088,-0.572 2.033,-1.303 2.836,-2.191 0.802,-0.888 1.346,-1.618 1.633,-2.191 h -0.773 c -0.917,0 -1.891,0.029 -2.922,0.086 v -1.461 c 1.031,0.058 2.005,0.086 2.922,0.086 h 1.203 c 0,-1.088 -0.029,-2.005 -0.086,-2.75 h 1.719 c -0.058,0.745 -0.086,1.662 -0.086,2.75 1.031,0 2.033,-0.028 3.008,-0.086 v 1.461 c -0.975,-0.057 -1.977,-0.086 -3.008,-0.086 v 3.953 c 0,0.459 0.028,0.945 0.086,1.461 h -1.719 c 0.057,-0.286 0.086,-0.773 0.086,-1.461 v -1.978 z m -2.234,10.957 c 0.859,-0.486 1.805,-1.16 2.836,-2.02 0.286,0.401 0.658,0.889 1.117,1.461 -0.631,0.344 -1.318,0.745 -2.063,1.203 -0.745,0.458 -1.776,1.088 -3.094,1.891 -0.287,-0.516 -0.631,-1.003 -1.031,-1.461 0.63,-0.228 1.376,-0.587 2.235,-1.074 z m 14.18,-3.996 c 0.63,0 1.289,-0.028 1.977,-0.086 v 1.461 c -0.688,-0.057 -1.347,-0.086 -1.977,-0.086 h -5.844 v 3.781 c 0,0.859 -0.358,1.403 -1.074,1.633 -0.717,0.229 -1.504,0.372 -2.363,0.43 -0.172,-0.631 -0.401,-1.232 -0.688,-1.805 1.203,0.057 1.919,0.043 2.148,-0.043 0.229,-0.086 0.344,-0.387 0.344,-0.902 v -3.094 h -6.789 c -0.516,0 -1.061,0.058 -1.633,0.172 v -1.547 c 0.572,0.058 1.117,0.086 1.633,0.086 h 14.266 z m -2.235,-2.922 c 0.516,0 1.203,-0.028 2.063,-0.086 v 1.461 c -0.975,-0.057 -1.662,-0.086 -2.063,-0.086 h -9.453 c -0.401,0 -1.031,0.029 -1.891,0.086 v -1.461 c 0.688,0.058 1.317,0.086 1.891,0.086 h 9.453 z m -4.984,-3.523 c -0.287,0.344 -0.659,0.717 -1.117,1.117 -0.631,-0.744 -1.261,-1.375 -1.891,-1.891 0.4,-0.4 0.688,-0.773 0.859,-1.117 0.745,0.631 1.461,1.261 2.149,1.891 z m 3.609,-3.696 c 0,-1.203 -0.029,-2.091 -0.086,-2.664 h 1.719 c -0.058,0.688 -0.086,1.576 -0.086,2.664 h 1.719 c 0.802,0 1.633,-0.028 2.492,-0.086 v 1.461 c -0.803,-0.057 -1.604,-0.086 -2.406,-0.086 h -1.203 c 1.375,1.776 2.864,3.065 4.469,3.867 -0.688,0.459 -1.146,0.889 -1.375,1.289 -0.803,-0.63 -1.547,-1.317 -2.234,-2.063 -0.688,-0.744 -1.175,-1.289 -1.461,-1.633 v 2.063 c 0,0.459 0.028,1.089 0.086,1.891 h -1.719 c 0.057,-0.63 0.086,-1.203 0.086,-1.719 v -2.148 c -0.459,0.631 -0.874,1.175 -1.246,1.633 -0.373,0.459 -1.189,1.203 -2.449,2.234 -0.344,-0.4 -0.803,-0.744 -1.375,-1.031 1.146,-0.688 2.076,-1.432 2.793,-2.234 0.716,-0.802 1.217,-1.518 1.504,-2.148 h -0.859 c -0.459,0 -0.975,0.029 -1.547,0.086 v -1.461 c 0.572,0.058 1.26,0.086 2.063,0.086 h 1.115 z m 2.922,13.321 c 0.802,0.401 1.747,0.975 2.836,1.719 -0.459,0.516 -0.803,1.002 -1.031,1.461 -0.975,-0.803 -2.607,-1.775 -4.898,-2.922 0.4,-0.516 0.716,-0.974 0.945,-1.375 0.63,0.343 1.345,0.716 2.148,1.117 z"
   id="path113"
   inkscape:connector-curvature="0"
   style="fill:#ffffff" />
		<path
   d="m 564.379,40.689 v 8.852 h 4.469 V 36.307 c 0,-1.088 -0.029,-2.177 -0.086,-3.266 h 1.891 c -0.058,1.031 -0.086,2.12 -0.086,3.266 v 2.922 h 3.438 c 0.974,0 2.063,-0.028 3.266,-0.086 v 1.719 c -1.203,-0.057 -2.292,-0.086 -3.266,-0.086 h -3.438 v 8.766 h 4.727 c 1.146,0 2.32,-0.028 3.523,-0.086 v 1.719 c -1.203,-0.058 -2.378,-0.086 -3.523,-0.086 h -12.547 c -1.203,0 -2.406,0.028 -3.609,0.086 v -1.719 c 0.916,0.058 2.063,0.086 3.438,0.086 V 40.69 c 0,-0.974 -0.029,-1.977 -0.086,-3.008 h 1.977 c -0.06,1.031 -0.088,2.034 -0.088,3.007 z"
   id="path115"
   inkscape:connector-curvature="0"
   style="fill:#ffffff" />
		<path
   d="m 585.348,40.947 c -0.344,0.459 -0.659,0.945 -0.945,1.461 -0.516,-0.516 -1.662,-1.346 -3.438,-2.492 0.286,-0.344 0.572,-0.773 0.859,-1.289 1.719,1.031 2.893,1.805 3.524,2.32 z m -0.731,7.477 c -0.373,0.631 -0.73,1.246 -1.074,1.848 -0.344,0.602 -0.717,1.274 -1.117,2.02 -0.459,-0.459 -0.945,-0.889 -1.461,-1.289 0.744,-0.859 1.461,-1.904 2.148,-3.137 0.688,-1.231 1.26,-2.334 1.719,-3.309 0.4,0.459 0.83,0.889 1.289,1.289 -0.631,1.089 -1.132,1.948 -1.504,2.578 z m 1.418,-13.063 c -0.401,0.344 -0.717,0.803 -0.945,1.375 -1.662,-1.317 -2.808,-2.091 -3.438,-2.32 0.4,-0.516 0.688,-0.945 0.859,-1.289 1.72,1.031 2.893,1.776 3.524,2.234 z m 4.34,15.598 c -0.945,0.658 -1.905,1.274 -2.879,1.848 -0.344,-0.459 -0.717,-0.859 -1.117,-1.203 0.802,-0.344 1.59,-0.76 2.363,-1.246 0.773,-0.486 1.532,-1.103 2.277,-1.848 0.4,0.401 0.859,0.773 1.375,1.117 -0.401,0.229 -1.074,0.674 -2.019,1.332 z m 4.34,-15.941 h 6.273 c -0.058,0.688 -0.086,1.318 -0.086,1.891 0,0.516 0.028,1.117 0.086,1.805 h -1.719 v -2.492 h -10.914 v 2.32 h -1.719 c 0.057,-0.688 0.086,-1.289 0.086,-1.805 0,-0.516 -0.029,-1.088 -0.086,-1.719 h 6.188 c -0.229,-0.688 -0.631,-1.403 -1.203,-2.148 0.63,-0.172 1.174,-0.372 1.633,-0.602 0.63,1.031 1.117,1.948 1.461,2.75 z m 0.688,3.093 c 0.802,0 1.689,-0.028 2.664,-0.086 V 39.4 c -0.917,-0.057 -1.805,-0.086 -2.664,-0.086 h -1.031 v 1.805 h 5.156 c -0.058,0.745 -0.086,1.547 -0.086,2.406 v 2.492 c 0,0.688 0.028,1.433 0.086,2.234 h -3.18 c 0.63,0.344 1.346,0.773 2.148,1.289 0.802,0.516 1.633,1.088 2.492,1.719 -0.401,0.458 -0.745,0.916 -1.031,1.375 -0.859,-0.688 -1.69,-1.304 -2.492,-1.848 -0.803,-0.544 -1.547,-1.017 -2.234,-1.418 0.4,-0.458 0.688,-0.83 0.859,-1.117 h -8.164 c 0.057,-0.802 0.086,-1.547 0.086,-2.234 v -2.492 c 0,-0.859 -0.029,-1.661 -0.086,-2.406 h 4.984 v -1.805 h -0.945 c -0.803,0 -1.69,0.029 -2.664,0.086 v -1.375 c 1.031,0.058 1.891,0.086 2.578,0.086 h 3.524 z m -2.493,5.93 v -1.719 h -3.438 v 1.719 h 3.438 z m 0,3.008 V 45.33 h -3.438 v 1.719 h 3.438 z m 4.985,-3.008 v -1.719 h -3.523 v 1.719 h 3.523 z m 0,3.008 V 45.33 h -3.523 v 1.719 h 3.523 z"
   id="path117"
   inkscape:connector-curvature="0"
   style="fill:#ffffff" />
		<path
   d="m 606.875,36.092 c -0.545,0.945 -1.16,2.02 -1.848,3.223 0.4,0 1.346,-0.028 2.836,-0.086 0.63,-0.974 1.117,-1.891 1.461,-2.75 0.688,0.516 1.289,0.917 1.805,1.203 -0.459,0.516 -1.074,1.347 -1.848,2.492 -0.773,1.146 -1.819,2.578 -3.137,4.297 0.458,-0.057 1.775,-0.229 3.953,-0.516 -0.115,0.573 -0.172,1.117 -0.172,1.633 -0.859,0 -1.805,0.086 -2.836,0.258 -1.031,0.172 -2.092,0.373 -3.18,0.602 -0.172,-0.688 -0.373,-1.317 -0.602,-1.891 0.458,-0.114 1.031,-0.544 1.719,-1.289 0.688,-0.744 1.375,-1.661 2.063,-2.75 -0.459,0 -1.074,0.043 -1.848,0.129 -0.774,0.086 -1.418,0.215 -1.934,0.387 -0.115,-0.516 -0.287,-1.088 -0.516,-1.719 0.516,-0.4 1.117,-1.203 1.805,-2.406 0.688,-1.203 1.289,-2.492 1.805,-3.867 0.4,0.229 1.06,0.516 1.977,0.859 -0.458,0.515 -0.959,1.245 -1.503,2.191 z m 2.879,13.105 c -0.688,0.172 -1.647,0.444 -2.879,0.816 -1.232,0.373 -2.307,0.73 -3.223,1.074 -0.229,-0.802 -0.487,-1.461 -0.773,-1.977 1.088,-0.172 2.162,-0.387 3.223,-0.645 1.06,-0.258 2.363,-0.587 3.91,-0.988 -0.172,0.689 -0.258,1.262 -0.258,1.72 z m 11.774,-15.468 c -0.688,1.375 -1.289,2.464 -1.805,3.266 -0.516,0.803 -1.175,1.633 -1.977,2.492 0.802,0.344 1.59,0.602 2.363,0.773 0.773,0.171 1.848,0.315 3.223,0.43 -0.516,0.631 -0.859,1.261 -1.031,1.891 -1.375,-0.286 -2.578,-0.63 -3.609,-1.031 -1.031,-0.4 -1.805,-0.773 -2.32,-1.117 l -2.578,1.289 c -0.688,0.344 -1.633,0.688 -2.836,1.031 -0.287,-0.516 -0.688,-1.117 -1.203,-1.805 1.088,-0.114 2.005,-0.271 2.75,-0.473 0.744,-0.2 1.547,-0.559 2.406,-1.074 -1.031,-1.031 -1.891,-2.435 -2.578,-4.211 h -0.773 v -1.547 c 0.859,0.058 1.689,0.086 2.492,0.086 h 7.476 z m -5.844,10.14 c 0,-0.572 -0.029,-1.117 -0.086,-1.633 h 1.891 c -0.058,0.573 -0.086,1.117 -0.086,1.633 h 1.117 c 0.859,0 1.775,-0.028 2.75,-0.086 v 1.547 c -0.975,-0.057 -1.862,-0.086 -2.664,-0.086 h -1.203 v 2.32 h 1.891 c 1.088,0 2.148,-0.028 3.18,-0.086 v 1.719 c -1.031,-0.057 -2.063,-0.086 -3.094,-0.086 h -1.977 V 50.4 c 0,0.859 0.028,1.633 0.086,2.32 h -1.891 c 0.057,-0.688 0.086,-1.461 0.086,-2.32 v -1.289 h -1.289 c -1.146,0 -2.292,0.029 -3.438,0.086 v -1.719 c 1.146,0.058 2.291,0.086 3.438,0.086 h 1.289 v -2.32 h -1.203 c -0.859,0 -1.748,0.029 -2.664,0.086 v -1.547 c 0.916,0.058 1.805,0.086 2.664,0.086 h 1.203 z m -1.719,-8.68 c 0.802,1.604 1.633,2.693 2.492,3.266 0.4,-0.344 0.802,-0.787 1.203,-1.332 0.4,-0.544 0.802,-1.188 1.203,-1.934 h -4.898 z"
   id="path119"
   inkscape:connector-curvature="0"
   style="fill:#ffffff" />
	</g>
</g>
<g
   id="图层_2"
   transform="matrix(0.5,0,0,0.5,-74.979561,0)">
	<g
   id="g122">
		<path
   d="m -85.892,39.56 h -3.823 v -2.285 c -0.635,0.889 -1.384,1.551 -2.249,1.984 -0.864,0.435 -1.736,0.652 -2.615,0.652 -1.787,0 -3.318,-0.72 -4.592,-2.16 -1.274,-1.44 -1.912,-3.45 -1.912,-6.028 0,-2.637 0.62,-4.641 1.86,-6.013 1.24,-1.372 2.808,-2.058 4.702,-2.058 1.738,0 3.242,0.723 4.512,2.168 v -7.734 h 4.116 V 39.56 z m -10.987,-8.116 c 0,1.66 0.229,2.861 0.688,3.604 0.664,1.074 1.592,1.611 2.783,1.611 0.947,0 1.753,-0.402 2.417,-1.208 0.664,-0.806 0.996,-2.01 0.996,-3.611 0,-1.787 -0.322,-3.074 -0.967,-3.86 -0.645,-0.786 -1.47,-1.179 -2.476,-1.179 -0.977,0 -1.794,0.388 -2.454,1.165 -0.66,0.777 -0.987,1.935 -0.987,3.478 z"
   id="path124"
   inkscape:connector-curvature="0"
   style="fill:#ffffff" />
	</g>
	<g
   id="g126">
		<path
   d="m -17.808,18.422 c -0.095,1.688 -0.141,3.329 -0.141,4.922 v 5.203 c 0,1.969 0.046,3.892 0.141,5.766 h -3.094 v -2.109 h -18.563 v 9.422 c -0.189,2.25 0.984,3.329 3.516,3.234 h 13.922 c 1.593,0.095 2.694,-0.141 3.305,-0.703 0.608,-0.563 1.055,-2.155 1.336,-4.781 1.03,0.657 2.202,1.174 3.516,1.547 -0.563,2.531 -1.195,4.24 -1.898,5.133 -0.703,0.89 -1.712,1.382 -3.023,1.477 h -18.844 c -3.375,0.092 -4.97,-1.36 -4.781,-4.359 V 31.078 c 0,-0.936 -0.048,-2.672 -0.141,-5.203 h 3.375 c -0.095,1.314 -0.141,2.626 -0.141,3.938 h 18.422 V 20.954 H -36.51 c -2.158,0 -4.595,0.048 -7.313,0.141 v -2.813 c 2.718,0.095 5.108,0.141 7.172,0.141 h 18.843 z"
   id="path128"
   inkscape:connector-curvature="0"
   style="fill:#85c155" />
		<path
   d="m 6.942,20.461 c -0.281,1.079 -0.657,2.556 -1.125,4.43 h 11.25 c 0.936,0 2.342,-0.046 4.219,-0.141 v 2.672 C 19.41,27.33 18.003,27.281 17.067,27.281 H 5.254 C 4.691,28.687 4.081,30.094 3.426,31.5 h 14.906 c -1.782,4.313 -4.267,7.924 -7.453,10.828 2.531,1.782 6.233,2.953 11.109,3.516 -0.657,0.749 -1.22,1.688 -1.688,2.813 -1.876,-0.376 -3.797,-0.914 -5.766,-1.617 -1.969,-0.703 -3.892,-1.712 -5.766,-3.023 -1.501,0.938 -3.329,1.85 -5.484,2.742 -2.158,0.89 -4.359,1.617 -6.609,2.18 -0.189,-0.938 -0.657,-1.828 -1.406,-2.672 2.061,-0.281 4.124,-0.773 6.188,-1.477 2.061,-0.703 3.889,-1.568 5.484,-2.602 -1.595,-1.593 -3.375,-3.889 -5.344,-6.891 -1.033,1.688 -2.345,3.329 -3.938,4.922 -1.595,1.596 -3.329,3.048 -5.203,4.359 -0.376,-0.654 -1.125,-1.357 -2.25,-2.109 1.406,-0.749 2.788,-1.733 4.148,-2.953 1.358,-1.217 2.788,-2.834 4.289,-4.852 1.499,-2.015 2.764,-4.476 3.797,-7.383 -2.439,0 -4.313,0.048 -5.625,0.141 -1.314,0.095 -2.298,0.281 -2.953,0.563 -0.281,-0.844 -0.657,-1.733 -1.125,-2.672 0.936,-0.187 1.617,-0.89 2.039,-2.109 0.422,-1.217 0.866,-3.094 1.336,-5.625 0.749,0.376 1.78,0.751 3.094,1.125 -0.47,0.938 -0.892,1.898 -1.266,2.883 -0.376,0.984 -0.798,2.087 -1.266,3.305 h 6.469 c 0.749,-2.999 1.312,-5.858 1.688,-8.578 1.03,0.563 2.109,0.892 3.234,0.984 -0.469,1.032 -0.842,2.086 -1.123,3.163 z m 2.109,20.32 c 2.061,-1.688 3.889,-4.029 5.484,-7.031 H 3.567 c 1.311,2.345 3.139,4.689 5.484,7.031 z m 9,-18.843 c -0.657,0.376 -1.455,0.984 -2.391,1.828 -1.501,-2.155 -2.953,-3.983 -4.359,-5.484 0.655,-0.468 1.312,-1.077 1.969,-1.828 1.592,1.781 3.186,3.609 4.781,5.484 z"
   id="path130"
   inkscape:connector-curvature="0"
   style="fill:#85c155" />
		<path
   d="m 37.879,21.234 c 1.03,-2.061 1.78,-4.078 2.25,-6.047 1.312,0.47 2.483,0.892 3.516,1.266 -0.47,0.376 -1.314,1.969 -2.531,4.781 H 51.52 c 2.813,0 5.108,-0.046 6.891,-0.141 v 2.531 H 39.848 c -1.501,2.626 -2.907,4.735 -4.219,6.328 h 7.313 c 0,-2.061 -0.048,-3.749 -0.141,-5.063 h 2.953 c -0.095,1.314 -0.141,3.001 -0.141,5.063 h 9.844 c -0.095,1.688 -0.141,3.375 -0.141,5.063 v 5.766 c 0,1.782 -0.492,2.907 -1.477,3.375 -0.984,0.471 -2.415,0.798 -4.289,0.984 -0.189,-1.312 -0.611,-2.391 -1.266,-3.234 2.155,0 3.445,-0.141 3.867,-0.422 0.422,-0.281 0.584,-1.03 0.492,-2.25 v -6.891 h -7.031 v 9.563 c 0,1.969 0.046,4.124 0.141,6.469 H 42.8 c 0.092,-2.345 0.141,-4.5 0.141,-6.469 V 32.343 H 36.332 V 45 H 33.52 c 0.092,-1.969 0.141,-3.889 0.141,-5.766 v -6.75 c -1.22,1.406 -3.048,3.188 -5.484,5.344 -0.657,-0.749 -1.501,-1.452 -2.531,-2.109 2.061,-1.406 4.054,-3.115 5.977,-5.133 1.92,-2.015 3.586,-4.335 4.992,-6.961 H 33.24 c -2.345,0 -4.5,0.048 -6.469,0.141 v -2.672 c 1.969,0.095 4.124,0.141 6.469,0.141 h 4.639 z"
   id="path132"
   inkscape:connector-curvature="0"
   style="fill:#85c155" />
	</g>
</g>
</svg>